<?xml version="1.0" standalone="no"?>
<!DOCTYPE svg PUBLIC "-//W3C//DTD SVG 20010904//EN"
 "http://www.w3.org/TR/2001/REC-SVG-20010904/DTD/svg10.dtd">
<svg version="1.0" xmlns="http://www.w3.org/2000/svg"
 width="576.000000pt" height="576.000000pt" viewBox="0 0 576.000000 576.000000"
 preserveAspectRatio="xMidYMid meet">

<g transform="translate(0.000000,576.000000) scale(0.100000,-0.100000)"
fill="#000000" stroke="none">
<path d="M76 5684 c-14 -14 -16 -282 -16 -2804 0 -2522 2 -2790 16 -2804 14
-14 113 -16 942 -16 4352 0 4655 0 4669 11 18 16 20 5598 1 5617 -9 9 -646 12
-2804 12 -2525 0 -2794 -2 -2808 -16z m5599 -929 l0 -920 -922 -3 -923 -2 0
909 c0 834 -4 969 -24 904 -3 -10 -5 -421 -5 -913 l1 -895 -922 0 -923 0 2
886 c1 487 -1 898 -4 912 -4 15 -11 24 -16 21 -5 -3 -9 -392 -9 -915 l0 -909
-923 2 -922 3 -3 910 c-1 501 0 916 3 922 3 10 577 12 2797 10 l2793 -2 0
-920z m-3762 -955 c16 0 17 -51 17 -919 l0 -919 -22 -4 c-18 -3 -1788 -2
-1820 1 -12 1 -10 1839 2 1843 7 2 1722 1 1823 -2z m3762 -920 l0 -920 -920
-1 -920 -2 -3 914 c-1 503 0 919 2 924 2 7 317 9 922 8 l919 -2 0 -921z
m-1875 0 l0 -915 -258 -5 c-143 -3 -335 -3 -428 0 -93 3 -387 3 -654 0 -267
-3 -489 -2 -493 1 -6 5 -12 1731 -7 1837 0 1 414 1 920 0 l920 -3 0 -915z
m-1872 -1872 l-3 -923 -920 0 -920 0 -3 910 c-1 501 0 916 3 923 3 9 198 12
925 12 l920 0 -2 -922z m1873 -3 l0 -920 -921 0 -920 0 0 915 c-1 503 -1 918
0 923 0 4 414 6 921 5 l920 -3 0 -920z m1874 0 l0 -920 -920 0 -920 0 -3 923
-2 922 922 -2 923 -3 0 -920z"/>
<path d="M1020 5578 c0 -14 -9 -43 -20 -66 l-20 -42 -70 0 c-43 0 -70 -4 -70
-11 0 -5 23 -31 51 -57 l50 -47 -11 -45 c-22 -84 -24 -110 -7 -110 8 0 20 7
27 15 7 8 17 15 22 15 6 0 23 9 39 21 l30 21 52 -36 c83 -57 89 -50 57 74
l-11 45 50 48 c28 27 51 53 51 58 0 5 -31 9 -70 9 l-70 0 -19 43 c-11 23 -21
51 -23 62 -5 30 -38 32 -38 3z m40 -58 c0 -10 5 -31 12 -45 10 -22 17 -25 63
-25 28 0 54 -3 58 -6 3 -4 -16 -24 -44 -45 -48 -39 -55 -49 -42 -63 10 -10 33
-80 28 -85 -3 -2 -25 10 -50 28 -50 36 -44 37 -117 -19 -33 -26 -34 -21 -9 48
l20 53 -49 38 c-27 21 -46 41 -43 45 4 3 29 6 57 6 46 0 52 3 64 27 6 15 12
35 12 45 0 11 7 18 20 18 13 0 20 -7 20 -20z"/>
<path d="M4410 5267 c-196 -100 -362 -186 -369 -190 -10 -7 -9 -13 5 -28 9
-10 21 -19 26 -19 5 0 54 -29 107 -65 54 -36 105 -65 114 -65 10 0 17 -4 17
-9 0 -5 10 -13 23 -16 42 -13 187 -87 187 -96 0 -5 11 -9 24 -9 13 0 26 -3 28
-7 2 -5 23 -18 48 -29 144 -69 154 -72 188 -55 9 5 28 13 42 19 14 6 90 42
170 80 80 38 152 73 160 76 24 11 161 87 259 144 50 30 91 59 91 65 0 10 -745
389 -760 386 -3 0 -165 -82 -360 -182z m350 -200 c0 -189 -2 -346 -5 -349 -5
-5 -670 325 -687 341 -4 4 138 80 315 170 177 90 326 167 332 172 5 5 17 9 27
9 17 0 18 -19 18 -343z"/>
<path d="M3090 5220 c-174 -25 -344 -153 -428 -324 -49 -99 -57 -136 -55 -248
3 -122 38 -231 109 -332 27 -39 137 -146 151 -146 7 0 13 -4 13 -10 0 -5 5
-10 12 -10 6 0 19 -6 27 -14 21 -19 94 -45 153 -56 27 -5 52 -11 56 -14 5 -3
51 -1 103 5 297 33 515 279 521 589 5 231 -162 459 -394 539 -65 22 -192 32
-268 21z m630 -607 c0 -114 -55 -236 -154 -340 -38 -40 -72 -73 -77 -73 -4 0
-30 -13 -56 -28 -76 -45 -135 -57 -263 -56 -127 1 -175 15 -278 76 -102 62
-207 200 -240 318 -15 51 -24 128 -17 140 4 6 196 10 546 10 l539 0 0 -47z"/>
<path d="M770 5180 l-205 -5 -3 -622 -2 -623 27 -7 c35 -10 872 -11 896 -1 16
7 17 46 17 628 0 488 -3 622 -12 625 -21 7 -499 10 -718 5z m708 -599 c1 -319
-2 -579 -7 -584 -5 -5 -29 21 -57 60 -27 37 -54 75 -61 83 -14 18 -205 276
-303 410 -135 185 -292 396 -366 493 -41 54 -72 102 -69 108 4 6 169 8 433 7
l427 -3 3 -574z"/>
<path d="M2065 4881 c-3 -5 -8 -101 -12 -213 -7 -228 -8 -221 64 -231 23 -3
50 -12 58 -21 9 -9 27 -19 40 -22 27 -7 98 13 90 26 -7 11 20 20 60 20 57 0
59 9 52 230 -3 110 -8 204 -12 210 -8 13 -332 14 -340 1z m323 -213 l2 -198
-155 0 -155 0 0 193 c0 107 3 197 7 201 4 3 72 5 152 4 l146 -3 3 -197z"/>
<path d="M4713 4372 c-50 -20 -106 -70 -129 -114 -21 -41 -24 -151 -5 -198 19
-46 77 -108 120 -126 48 -20 134 -18 179 5 43 23 92 78 109 124 17 46 16 142
-2 185 -19 45 -82 106 -131 127 -46 19 -88 18 -141 -3z m146 -22 c125 -64 159
-223 69 -325 -83 -94 -180 -100 -278 -18 -59 49 -82 172 -46 241 54 104 165
148 255 102z"/>
<path d="M695 3281 l-50 -6 -3 -462 -2 -463 27 -7 c16 -5 287 -8 604 -8 473 0
579 2 592 14 15 12 17 53 16 415 -1 220 -4 428 -8 461 l-6 60 -560 1 c-308 1
-582 -1 -610 -5z m1155 -477 l0 -434 -581 0 c-350 0 -579 4 -577 9 2 5 122 99
268 209 146 109 328 247 405 306 77 59 165 125 195 147 30 21 105 77 165 123
61 46 113 82 118 79 4 -2 7 -200 7 -439z"/>
<path d="M194 3048 c-5 -7 -10 -103 -12 -213 -4 -177 -3 -202 12 -214 24 -20
318 -20 342 0 15 12 16 36 12 215 -3 110 -8 206 -12 212 -10 17 -332 17 -342
0z m321 -208 l0 -195 -152 -3 -153 -3 0 194 c0 107 3 197 7 201 4 3 72 5 152
4 l146 -3 0 -195z"/>
<path d="M4477 3543 c-140 -273 -347 -694 -347 -706 0 -20 63 -153 218 -462
69 -137 130 -260 136 -272 15 -32 38 -28 60 10 46 80 322 641 347 705 8 20
-20 81 -167 375 -97 194 -182 362 -188 374 -17 34 -32 28 -59 -24z m213 -328
c91 -184 166 -341 168 -350 3 -13 -39 -15 -347 -15 -193 0 -351 3 -351 6 0 18
345 694 354 694 6 -1 85 -151 176 -335z"/>
<path d="M5324 3055 c-3 -19 -10 -38 -15 -41 -5 -3 -9 -14 -9 -24 0 -28 -30
-40 -99 -40 -34 0 -61 -3 -61 -7 0 -5 25 -30 56 -57 40 -35 53 -53 49 -65 -4
-9 -13 -41 -20 -71 -15 -61 -7 -83 22 -58 10 8 37 25 59 38 l42 22 46 -27 c25
-15 49 -31 52 -36 3 -5 9 -9 15 -9 14 0 11 51 -6 106 l-15 49 56 53 c31 29 55
55 53 57 -2 1 -35 5 -72 7 -37 3 -71 9 -76 14 -7 9 -34 72 -45 107 -9 28 -25
19 -32 -18z m45 -75 c16 -43 18 -45 61 -48 68 -4 78 -10 49 -29 -13 -10 -35
-28 -49 -40 -21 -20 -23 -26 -12 -43 6 -11 12 -28 12 -38 0 -10 5 -23 12 -30
27 -27 -6 -23 -46 6 -24 18 -48 32 -53 32 -5 0 -28 -14 -51 -31 -24 -17 -45
-30 -47 -27 -5 4 16 66 29 87 7 10 -4 26 -37 58 -26 24 -47 46 -47 49 0 2 24
4 54 4 57 0 60 3 81 78 10 33 25 23 44 -28z"/>
<path d="M2830 3649 c-137 -35 -216 -78 -303 -164 -116 -115 -168 -249 -168
-425 1 -147 56 -272 170 -386 80 -80 114 -102 223 -145 91 -36 240 -40 343 -8
300 92 477 421 388 723 -72 244 -301 417 -548 415 -38 -1 -86 -5 -105 -10z
m98 -561 l-3 -553 -43 4 c-161 11 -347 133 -430 281 -53 94 -65 144 -66 265
-1 164 40 265 158 386 66 68 201 149 249 149 12 0 29 5 37 10 8 5 34 10 58 10
l42 0 -2 -552z"/>
<path d="M2860 2439 c-60 -36 -99 -81 -120 -136 -38 -102 -21 -182 55 -259 52
-52 81 -64 157 -64 151 0 257 187 188 333 -25 52 -96 127 -121 127 -10 0 -21
5 -24 10 -11 18 -98 11 -135 -11z m151 -23 c39 -17 90 -67 113 -113 26 -53 21
-131 -13 -184 -51 -81 -119 -116 -200 -103 -56 9 -97 37 -130 90 -53 83 -50
161 9 241 53 71 146 101 221 69z"/>
<path d="M647 1844 c-4 -4 -7 -292 -7 -641 l0 -633 23 -9 c18 -7 96 -16 170
-21 5 0 5 -4 2 -10 -3 -5 0 -10 8 -10 8 0 17 7 21 15 3 8 10 15 16 15 5 0 10
-7 10 -15 0 -20 19 -19 42 2 10 9 18 11 18 5 0 -6 -5 -14 -10 -17 -6 -4 -20
-25 -32 -48 -26 -51 -31 -186 -9 -227 51 -92 119 -139 204 -140 81 0 168 62
203 146 20 47 17 145 -4 202 -29 76 -20 82 135 92 70 5 129 9 131 10 1 0 2 8
2 18 0 10 2 21 5 24 8 7 10 281 7 806 l-2 442 -463 0 c-255 0 -467 -3 -470 -6z
m52 -116 c7 -13 28 -43 47 -68 160 -217 458 -622 674 -914 60 -81 107 -152
104 -157 -3 -5 -193 -9 -430 -9 -332 0 -424 3 -424 13 0 6 0 266 0 577 -1 311
-1 568 -1 573 1 14 16 7 30 -15z m488 -1189 c27 -13 55 -38 75 -67 29 -42 32
-54 32 -118 0 -63 -3 -77 -29 -113 -38 -56 -73 -79 -135 -91 -66 -12 -118 8
-172 67 -92 103 -56 273 70 329 43 19 111 16 159 -7z"/>
<path d="M2625 1550 c-11 -5 -31 -9 -44 -9 -50 -2 -190 -81 -255 -145 -64 -64
-136 -173 -154 -236 -35 -116 -34 -115 -22 -226 20 -177 63 -269 179 -384 198
-196 468 -226 701 -76 113 72 218 221 249 351 16 69 17 260 2 310 -20 64 -73
162 -116 215 -70 85 -203 170 -299 193 -59 13 -217 18 -241 7z m230 -24 c17
-4 66 -25 111 -47 165 -82 295 -264 306 -429 l3 -45 -555 0 -555 0 1 25 c4 61
19 111 56 186 74 150 211 264 373 311 41 11 207 11 260 -1z"/>
<path d="M3557 1148 c-3 -13 -12 -41 -20 -63 l-15 -40 -76 -3 c-42 -2 -76 -6
-76 -10 0 -4 25 -29 55 -57 l56 -50 -15 -50 c-16 -51 -21 -105 -10 -105 3 0
32 16 65 36 l58 36 52 -36 c51 -38 85 -41 75 -9 -2 10 -10 44 -17 77 l-13 58
52 45 c29 25 52 49 52 53 0 5 -33 10 -72 12 -70 3 -73 4 -87 33 -8 17 -17 43
-21 60 -7 37 -35 45 -43 13z m41 -63 c8 -51 23 -65 72 -65 26 0 50 -3 53 -7 4
-4 -14 -25 -40 -48 -34 -31 -44 -45 -37 -56 14 -22 34 -83 29 -88 -3 -2 -25
10 -49 27 -24 18 -47 32 -51 32 -4 0 -24 -13 -45 -30 -21 -16 -42 -30 -48 -30
-6 0 -1 24 10 55 21 60 21 58 -33 100 -41 32 -38 40 21 45 54 5 55 5 70 48 15
45 42 54 48 17z"/>
<path d="M4649 1660 c-64 -11 -134 -43 -186 -86 -77 -63 -137 -197 -131 -292
l3 -46 57 -4 c77 -4 98 8 98 56 0 52 34 140 67 174 46 49 88 63 183 63 68 0
92 -4 120 -21 71 -41 120 -161 98 -240 -18 -66 -38 -95 -138 -199 -53 -56
-109 -122 -124 -147 -35 -59 -58 -150 -54 -212 l3 -51 60 0 c84 -1 95 6 95 60
0 90 32 146 161 282 145 154 169 197 169 303 0 101 -20 163 -74 232 -85 107
-241 156 -407 128z"/>
<path d="M4634 487 c-3 -8 -4 -49 -2 -93 l3 -79 85 0 85 0 0 90 0 90 -83 3
c-63 2 -84 0 -88 -11z"/>
</g>
</svg>
