<?xml version="1.0" standalone="no"?>
<!DOCTYPE svg PUBLIC "-//W3C//DTD SVG 20010904//EN"
 "http://www.w3.org/TR/2001/REC-SVG-20010904/DTD/svg10.dtd">
<svg version="1.0" xmlns="http://www.w3.org/2000/svg"
 width="1920.000000pt" height="402.000000pt" viewBox="0 0 1920.000000 402.000000"
 preserveAspectRatio="xMidYMid meet">

<g transform="translate(0.000000,402.000000) scale(0.100000,-0.100000)"
fill="#000000" stroke="none">
<path d="M114 3918 c-9 -13 -8 -1944 1 -2573 6 -404 16 -1161 15 -1192 0 -35
39 -66 75 -58 16 3 3927 5 8690 4 4763 0 9004 0 9425 0 l765 2 -4 27 c-5 34
-5 57 6 1727 13 1763 12 2030 -5 2047 -11 11 -1723 13 -9471 15 -5202 1 -9465
5 -9473 8 -9 4 -20 0 -24 -7z m3161 -333 l0 -290 -1565 0 -1565 0 -3 280 c-1
154 0 285 3 292 3 11 313 13 1567 11 l1563 -3 0 -290z m3143 -2 l2 -293 -1550
0 -1549 0 -3 281 c-2 154 1 287 5 295 7 12 222 14 1550 12 l1542 -3 3 -292z
m3138 285 c5 -8 9 -476 4 -570 0 -5 -697 -8 -1549 -8 l-1548 0 -7 31 c-10 54
-7 519 4 540 11 19 38 19 1550 19 1175 0 1541 -3 1546 -12z m3143 -2 c8 -9 11
-95 9 -292 l-3 -279 -1550 0 -1550 0 -3 280 c-1 154 0 285 3 292 7 20 3078 19
3094 -1z m3146 -281 l0 -290 -1550 0 -1550 0 -3 270 c-1 149 0 280 3 293 l5
22 1548 -2 1547 -3 0 -290z m3210 0 l0 -290 -1573 -5 c-865 -3 -1580 -2 -1587
3 -11 6 -14 62 -14 284 0 182 4 282 11 290 8 11 313 13 1587 11 l1576 -3 0
-290z m-15780 -1890 l0 -1550 -1546 -3 c-1315 -2 -1548 0 -1564 12 -19 14 -20
48 -23 1540 -3 839 -2 1532 2 1541 5 13 176 15 1568 13 l1563 -3 0 -1550z
m3140 0 l0 -1550 -1545 0 -1545 0 -3 1540 c-1 847 0 1546 3 1553 3 10 318 12
1547 10 l1543 -3 0 -1550z m3130 1543 c21 -9 31 -9 46 0 14 9 383 12 1563 12
1399 0 1544 -1 1550 -16 11 -27 7 -3064 -4 -3084 -9 -17 -70 -18 -1542 -18
-1002 0 -1537 4 -1545 10 -10 8 -13 119 -13 492 0 863 -20 2540 -31 2551 -6 6
-9 -520 -9 -1514 1 -838 -2 -1526 -5 -1530 -7 -7 -3076 -2 -3087 6 -10 5 -11
3087 -1 3096 3 4 692 7 1529 7 1159 0 1529 -3 1549 -12z m6299 -1183 c0 -1740
-2 -1890 -22 -1908 -15 -13 -210 -15 -1537 -16 -1070 0 -1523 3 -1532 11 -11
8 -13 302 -13 1553 0 848 3 1545 7 1548 3 4 702 6 1552 5 l1546 -3 -1 -1190z
m3202 1178 c15 -16 16 -116 12 -1547 -5 -1500 -5 -1530 -25 -1545 -17 -14 -68
-16 -424 -14 -222 2 -924 3 -1561 3 -1086 0 -1157 1 -1174 17 -16 16 -17 39
-11 286 4 148 10 832 13 1521 3 688 7 1261 10 1274 l4 22 1569 0 c1464 0 1571
-1 1587 -17z"/>
<path d="M1695 3793 c-24 -62 -155 -414 -155 -418 0 -3 13 -5 28 -5 26 0 30 5
48 63 l20 62 96 3 96 3 23 -66 c22 -62 24 -65 56 -65 l33 0 -17 43 c-150 379
-156 392 -189 395 -23 2 -33 -2 -39 -15z m42 -241 c-38 -2 -71 -1 -73 1 -3 2
9 40 25 83 16 44 32 88 36 99 5 15 16 -6 44 -80 l38 -100 -70 -3z"/>
<path d="M4710 3590 l0 -220 116 0 c130 0 169 12 197 59 28 48 22 104 -14 140
-17 17 -35 31 -40 31 -6 0 3 11 18 24 23 20 28 32 28 70 0 85 -56 115 -217
116 l-88 0 0 -220z m202 159 c40 -10 53 -34 46 -80 -4 -33 -43 -49 -120 -49
l-68 0 0 70 0 70 53 0 c28 0 69 -5 89 -11z m50 -209 c24 -25 29 -36 24 -58
-12 -49 -39 -62 -132 -62 l-84 0 0 75 0 75 81 0 c76 0 82 -2 111 -30z"/>
<path d="M8095 3787 c-102 -58 -131 -207 -65 -336 48 -96 203 -122 287 -48 31
27 70 93 61 102 -2 2 -15 6 -29 10 -22 5 -27 3 -32 -17 -11 -41 -61 -80 -109
-85 -91 -9 -158 65 -158 174 0 67 18 111 59 146 60 50 176 30 196 -33 7 -23
65 -29 65 -7 0 25 -49 84 -83 101 -52 24 -143 21 -192 -7z"/>
<path d="M11180 3591 l0 -221 108 0 c127 0 177 18 211 73 50 81 48 225 -4 293
-42 55 -76 67 -202 72 l-113 5 0 -222z m247 137 c36 -33 53 -79 52 -140 -1
-73 -20 -119 -59 -145 -27 -19 -47 -23 -111 -23 l-79 0 0 163 c0 90 3 167 8
171 4 5 42 6 85 3 64 -4 84 -10 104 -29z"/>
<path d="M14170 3590 l0 -220 160 0 160 0 0 25 0 25 -135 0 -135 0 0 75 0 75
120 0 120 0 0 25 0 25 -120 0 -121 0 3 68 3 67 128 3 127 3 0 24 0 25 -155 0
-155 0 0 -220z"/>
<path d="M17640 3590 l0 -220 25 0 25 0 0 100 0 100 105 0 105 0 0 25 0 25
-105 0 -106 0 3 68 3 67 118 3 117 3 0 24 0 25 -145 0 -145 0 0 -220z"/>
<path d="M2239 2830 c-9 -6 -43 -60 -74 -122 -131 -255 -301 -590 -357 -703
-33 -66 -93 -186 -134 -268 l-73 -148 19 -49 c11 -27 24 -57 29 -67 6 -10 17
-36 26 -58 9 -22 21 -48 26 -57 18 -35 28 -55 99 -203 40 -82 77 -157 81 -165
5 -8 12 -22 15 -30 4 -8 24 -51 45 -95 35 -71 52 -106 81 -155 4 -8 11 -22 14
-30 3 -8 11 -26 19 -40 7 -14 32 -63 55 -110 22 -47 46 -92 51 -100 5 -8 15
-26 22 -40 64 -130 80 -119 223 168 36 72 70 135 75 138 5 3 9 15 9 28 0 13 9
31 20 41 11 10 20 26 20 36 0 10 4 20 9 24 5 3 15 22 22 42 7 21 18 44 26 51
7 7 13 19 13 26 0 8 7 19 15 26 8 7 15 23 15 35 0 12 9 34 20 48 11 14 20 32
20 40 0 9 4 18 9 21 12 8 82 153 166 344 14 31 32 70 40 85 8 16 15 34 15 40
0 7 -113 237 -251 512 -389 773 -378 753 -410 735z m594 -1269 c9 -9 -60 -159
-186 -406 -52 -102 -104 -207 -262 -527 -70 -142 -131 -258 -136 -258 -5 0
-14 12 -20 26 -10 27 -373 766 -389 794 -5 8 -21 40 -35 70 -14 30 -30 62 -35
70 -6 8 -15 26 -21 40 -5 14 -20 44 -32 68 -12 24 -30 59 -40 79 -10 20 -15
39 -10 44 5 5 220 10 478 11 570 4 675 2 688 -11z"/>
<path d="M601 1946 c-7 -9 -13 -122 -16 -352 -4 -280 -2 -342 10 -360 14 -22
26 -24 240 -40 91 -7 331 18 349 36 16 16 11 697 -5 716 -17 20 -561 21 -578
0z m544 -356 l0 -325 -255 0 -255 0 -3 315 c-1 173 0 321 3 328 3 10 60 12
257 10 l253 -3 0 -325z"/>
<path d="M4620 2720 c-13 -8 -16 -60 -19 -345 -2 -184 0 -346 3 -359 8 -32 15
-34 186 -45 150 -11 364 0 402 20 17 9 18 29 17 327 0 174 -4 337 -7 362 l-7
45 -280 2 c-166 2 -286 -1 -295 -7z m538 -42 c9 -9 12 -92 12 -314 0 -166 -3
-309 -6 -318 -5 -14 -38 -16 -259 -16 -221 0 -254 2 -259 16 -3 9 -6 152 -6
318 0 222 3 305 12 314 17 17 489 17 506 0z"/>
<path d="M4573 1441 c-172 -86 -397 -198 -500 -249 -103 -51 -208 -104 -233
-117 -25 -13 -80 -41 -123 -61 -44 -21 -81 -44 -85 -52 -7 -19 10 -46 32 -50
27 -6 229 -126 247 -148 6 -8 19 -14 29 -14 10 0 23 -6 30 -14 16 -21 148 -86
172 -86 11 0 22 -8 25 -20 4 -13 14 -20 31 -20 13 0 47 -13 74 -30 26 -16 53
-30 59 -30 6 0 22 -9 36 -20 14 -11 33 -20 43 -20 10 0 29 -9 43 -20 14 -11
32 -20 40 -20 8 0 26 -9 40 -20 14 -11 30 -20 37 -20 6 0 31 -13 55 -30 24
-16 55 -30 69 -30 15 0 31 -8 38 -20 8 -12 24 -20 40 -20 15 0 42 -9 60 -20
50 -30 98 -25 186 18 42 21 82 37 88 35 6 -2 17 3 24 12 7 8 17 15 22 15 5 0
21 9 35 20 14 11 33 20 42 20 9 0 22 9 28 19 10 16 20 19 48 14 27 -4 35 -2
35 10 0 17 62 57 89 57 10 0 26 9 36 20 10 11 24 20 30 20 7 0 24 9 38 20 14
11 37 20 51 20 14 0 26 4 26 9 0 5 13 11 29 14 16 3 35 12 43 20 8 8 24 18 36
21 12 4 43 23 67 42 25 19 49 34 54 34 5 0 16 6 23 13 7 8 25 20 40 28 53 28
144 83 167 101 13 10 32 18 42 18 23 0 36 44 19 65 -7 8 -17 15 -22 15 -5 0
-14 5 -21 10 -12 10 -72 41 -587 303 -294 149 -350 177 -488 245 -40 19 -75
39 -78 44 -12 19 -66 -3 -361 -151z m409 87 c7 -7 119 -66 248 -131 129 -65
242 -123 250 -127 8 -5 83 -42 165 -83 83 -41 195 -97 250 -125 55 -28 107
-53 115 -56 8 -3 22 -10 30 -15 8 -5 23 -12 33 -15 36 -11 -3 -45 -116 -101
-61 -30 -132 -66 -157 -79 -25 -13 -90 -46 -145 -74 -212 -105 -681 -345 -692
-354 -7 -6 -20 -8 -28 -4 -13 5 -15 77 -15 584 0 318 3 582 7 585 10 11 41 8
55 -5z"/>
<path d="M7497 2818 c-8 -13 -21 -35 -28 -50 -8 -14 -29 -55 -48 -90 -19 -34
-145 -285 -282 -556 -136 -271 -253 -500 -260 -508 -12 -15 -7 -33 41 -139 44
-97 56 -121 73 -144 9 -13 17 -31 17 -41 0 -9 11 -37 25 -61 14 -24 27 -51 30
-59 6 -15 109 -230 126 -260 59 -112 89 -175 89 -189 0 -9 9 -24 20 -34 11 -9
20 -25 20 -35 0 -10 4 -22 10 -28 5 -5 39 -68 76 -139 66 -132 97 -175 121
-175 14 0 65 74 100 145 11 22 30 58 41 80 12 22 26 51 32 65 5 14 14 32 19
40 23 37 111 222 111 234 0 7 9 21 20 31 11 10 20 23 20 29 0 6 14 38 31 71
87 167 179 357 179 370 0 6 50 117 76 168 16 33 18 69 5 82 -5 6 -133 255
-284 555 -322 639 -330 654 -350 658 -9 2 -22 -7 -30 -20z m606 -1247 c4 -1 7
-7 7 -15 0 -17 9 3 -324 -666 -135 -272 -246 -501 -246 -508 0 -40 -35 14
-118 183 -51 105 -97 197 -102 205 -8 14 -34 67 -169 340 -23 47 -46 92 -50
100 -54 95 -170 345 -164 351 10 10 1055 18 1166 10z"/>
<path d="M11000 2705 c-6 -15 -10 -171 -10 -363 -1 -299 1 -338 15 -349 45
-32 524 -35 576 -2 20 12 20 698 0 723 -12 14 -48 16 -292 16 l-279 0 -10 -25z
m547 -27 c7 -10 10 -562 4 -641 -1 -4 -117 -6 -258 -5 l-258 3 -3 305 c-1 168
0 315 3 328 l5 22 249 0 c187 0 251 -3 258 -12z"/>
<path d="M8801 1942 c-5 -9 -10 -170 -10 -364 -2 -327 -1 -347 16 -357 10 -5
83 -15 161 -22 112 -9 169 -9 270 1 70 7 135 17 146 22 17 9 18 27 14 364 -3
301 -5 356 -18 364 -8 6 -136 10 -292 10 -254 0 -278 -1 -287 -18z m552 -36
c12 -30 8 -618 -4 -632 -9 -11 -61 -14 -259 -14 -217 0 -249 2 -254 16 -8 21
-8 629 1 637 3 4 120 7 259 7 207 0 253 -3 257 -14z"/>
<path d="M11266 1591 c-4 -5 -27 -19 -54 -31 -35 -17 -840 -418 -922 -460 -8
-4 -51 -25 -95 -48 -133 -66 -165 -86 -165 -103 0 -8 19 -25 43 -37 23 -12 74
-42 112 -67 39 -25 81 -50 94 -56 14 -5 31 -19 38 -29 8 -11 21 -20 30 -20 21
0 75 -31 91 -53 7 -9 26 -17 43 -17 16 0 29 -4 29 -10 0 -5 8 -10 19 -10 10 0
30 -9 44 -20 14 -11 29 -20 35 -20 5 0 17 -9 27 -20 10 -11 30 -20 45 -20 16
0 30 -6 33 -14 3 -7 19 -16 35 -19 16 -3 51 -20 78 -37 26 -16 56 -30 66 -30
10 0 23 -9 30 -20 7 -11 23 -20 35 -20 12 0 27 -9 33 -20 6 -12 21 -20 35 -20
14 0 33 -4 43 -9 71 -39 205 -91 233 -91 19 0 48 9 64 20 17 11 37 20 45 20 8
0 42 14 75 30 33 16 70 30 82 30 12 0 27 9 33 20 6 11 17 20 24 20 7 0 25 9
39 20 14 11 34 20 45 20 12 0 24 5 27 11 4 5 30 21 58 34 29 13 63 30 77 38
14 8 57 29 95 47 39 18 72 36 75 40 8 10 77 40 94 40 9 0 16 4 16 9 0 10 86
61 103 61 5 0 17 8 26 18 9 10 50 37 91 61 41 25 86 53 99 63 13 10 31 18 41
18 18 0 50 30 50 48 0 11 -1252 642 -1276 642 -7 0 -15 -4 -18 -9z m11 -631
c2 -316 -1 -581 -6 -589 -7 -10 -134 49 -582 274 -524 261 -588 296 -589 317
0 5 182 99 250 128 14 5 219 109 455 229 237 121 439 219 450 218 20 -2 20
-10 22 -577z"/>
<path d="M14370 2702 c-69 -21 -102 -42 -166 -107 -72 -74 -104 -157 -104
-273 1 -56 6 -96 15 -112 8 -14 14 -33 15 -42 0 -20 52 -97 96 -143 66 -69
248 -140 269 -105 3 6 25 10 49 10 30 0 56 9 89 30 51 32 134 113 148 145 5
11 13 27 18 35 40 69 51 255 20 321 -9 19 -22 45 -28 59 -18 38 -101 123 -146
150 -77 45 -190 58 -275 32z m194 -34 c78 -28 166 -110 207 -192 25 -51 29
-69 29 -145 0 -56 -5 -93 -14 -106 -7 -11 -16 -32 -19 -47 -9 -34 -110 -138
-163 -166 -34 -18 -58 -22 -133 -22 -78 0 -99 4 -140 25 -54 27 -148 126 -158
165 -3 14 -12 34 -19 45 -9 13 -14 50 -14 107 0 110 25 169 108 253 98 98 199
125 316 83z"/>
<path d="M13925 1329 c-291 -148 -537 -271 -545 -275 -29 -11 -55 -24 -70 -33
-8 -5 -36 -19 -62 -31 -27 -12 -48 -25 -48 -28 1 -21 10 -27 128 -93 70 -39
137 -83 153 -101 9 -10 23 -18 31 -18 8 0 23 -9 33 -20 10 -11 24 -20 32 -20
7 0 13 -4 13 -9 0 -5 18 -12 40 -16 24 -4 44 -14 50 -26 6 -10 21 -19 33 -19
12 0 39 -11 59 -25 20 -14 43 -25 51 -25 8 0 25 -8 38 -18 13 -10 59 -35 101
-56 42 -20 80 -41 83 -46 3 -6 15 -10 25 -10 10 0 25 -7 34 -15 8 -8 20 -15
26 -15 6 0 18 -7 26 -15 9 -8 26 -15 39 -15 14 0 29 -9 35 -20 7 -13 21 -20
39 -20 16 0 34 -7 41 -15 7 -8 26 -15 43 -15 17 0 39 -8 50 -18 26 -24 118
-24 144 0 11 10 28 18 39 18 10 0 30 9 44 20 14 11 34 20 45 20 11 0 29 7 39
15 11 8 30 15 43 15 13 0 26 7 29 15 4 8 14 15 24 15 10 0 23 7 31 16 17 21
63 44 87 44 11 0 26 7 33 16 14 17 105 64 124 64 7 0 20 9 30 20 10 11 25 20
34 20 9 0 31 9 49 20 18 11 41 20 52 20 11 0 20 4 20 10 0 5 18 14 40 20 22 6
38 15 35 20 -4 6 3 10 13 10 11 0 25 7 33 16 7 8 31 25 53 36 22 11 52 28 66
38 93 64 168 110 176 110 11 0 54 42 54 52 0 3 -39 25 -87 48 -49 23 -95 46
-103 51 -71 40 -1076 539 -1084 538 -6 -1 -249 -122 -541 -270z m621 202 c5
-6 258 -134 562 -286 425 -213 552 -281 550 -293 -2 -11 -96 -63 -248 -139
-135 -67 -250 -127 -257 -133 -7 -5 -16 -10 -20 -10 -7 0 -491 -241 -572 -286
-65 -35 -71 -33 -71 29 -1 52 0 1091 0 1115 0 14 42 16 56 3z"/>
<path d="M17620 2695 c-11 -26 -23 -59 -26 -73 -3 -15 -15 -51 -26 -79 -17
-45 -24 -53 -47 -54 -73 -1 -195 -10 -199 -14 -13 -13 13 -53 49 -75 22 -14
57 -40 76 -58 36 -32 36 -33 23 -75 -7 -23 -16 -60 -20 -82 -5 -22 -14 -55
-21 -72 -12 -29 -11 -35 3 -50 16 -15 20 -14 59 13 23 16 49 33 58 39 9 5 33
20 55 33 45 28 44 28 164 -50 40 -26 80 -44 88 -41 15 6 20 58 5 67 -5 3 -12
27 -16 53 -4 26 -14 64 -22 85 -9 22 -11 43 -6 51 9 17 98 88 131 106 14 7 22
21 22 36 0 23 -4 25 -47 27 -188 6 -182 5 -189 36 -4 15 -10 32 -14 37 -5 6
-12 28 -16 50 -8 45 -40 121 -54 130 -6 4 -19 -15 -30 -40z m50 -83 c0 -14 25
-101 40 -139 8 -20 17 -22 91 -25 45 -2 84 -8 86 -13 2 -6 -24 -30 -56 -54
-33 -23 -62 -49 -65 -57 -3 -8 6 -49 19 -91 16 -47 22 -80 16 -86 -9 -9 -111
59 -126 83 -13 21 -44 9 -105 -40 -34 -27 -66 -47 -71 -44 -14 8 -11 48 6 80
8 16 18 44 21 62 8 39 -14 67 -83 108 -62 36 -45 54 52 54 46 0 76 5 83 13 5
6 20 48 31 92 32 118 30 113 47 91 8 -11 14 -26 14 -34z"/>
<path d="M17010 1285 c-343 -172 -626 -318 -628 -325 -6 -16 28 -50 49 -50 10
0 21 -5 24 -10 3 -6 23 -18 43 -28 52 -26 83 -44 106 -64 11 -10 23 -18 27
-18 4 0 36 -19 71 -42 95 -64 96 -65 156 -89 49 -20 72 -33 72 -41 0 -4 8 -8
18 -8 10 0 38 -13 63 -29 25 -15 63 -34 85 -41 21 -7 44 -16 49 -20 6 -5 47
-27 92 -49 45 -23 85 -45 88 -51 3 -5 12 -10 20 -10 7 0 46 -15 87 -34 214
-98 218 -99 283 -66 22 11 48 20 58 20 10 0 25 7 33 15 9 8 24 15 34 15 10 0
22 5 25 10 4 6 22 17 41 25 19 8 34 19 34 24 0 6 13 11 28 11 16 0 37 9 47 20
10 11 25 20 32 20 8 0 26 9 40 20 14 11 39 20 54 20 16 0 29 4 29 9 0 5 14 14
30 21 17 7 30 16 30 21 0 5 8 9 19 9 20 0 107 45 116 61 4 5 16 9 28 9 13 0
30 9 40 20 9 11 26 20 37 20 11 0 23 6 26 14 3 8 18 18 34 21 16 3 34 13 41
21 6 8 17 14 24 14 7 0 18 7 25 16 8 8 27 22 44 30 35 16 103 55 156 88 19 13
47 30 63 40 54 33 53 33 -231 175 -70 35 -134 67 -142 72 -8 5 -22 12 -30 15
-8 3 -22 9 -30 14 -8 4 -71 36 -140 70 -69 34 -132 66 -140 71 -8 5 -58 29
-110 55 -52 25 -102 50 -110 55 -8 5 -22 12 -30 15 -8 3 -22 10 -30 15 -30 18
-241 119 -248 118 -4 0 -288 -141 -632 -314z m716 244 c3 -6 21 -17 38 -25 17
-8 38 -18 46 -23 8 -5 134 -69 280 -141 146 -72 272 -135 280 -140 8 -5 71
-36 140 -70 69 -33 132 -65 140 -69 8 -5 41 -21 73 -36 31 -15 60 -32 63 -36
3 -5 16 -9 30 -9 28 0 31 -20 6 -43 -29 -27 -1141 -579 -1152 -572 -11 7 -15
1157 -3 1168 10 11 51 8 59 -4z"/>
</g>
</svg>
