<?xml version="1.0" standalone="no"?>
<!DOCTYPE svg PUBLIC "-//W3C//DTD SVG 20010904//EN"
 "http://www.w3.org/TR/2001/REC-SVG-20010904/DTD/svg10.dtd">
<svg version="1.0" xmlns="http://www.w3.org/2000/svg"
 width="2019.000000pt" height="1020.000000pt" viewBox="0 0 2019.000000 1020.000000"
 preserveAspectRatio="xMidYMid meet">

<g transform="translate(0.000000,1020.000000) scale(0.100000,-0.100000)"
fill="#000000" stroke="none">
<path d="M14753 9653 c-9 -3 -10 -10 -3 -24 10 -18 4 -22 -27 -18 -3 0 -10 -6
-15 -15 -5 -9 -15 -16 -22 -16 -8 0 -19 -7 -26 -15 -7 -8 -20 -15 -30 -15 -9
0 -25 -9 -35 -20 -10 -11 -21 -17 -25 -15 -4 3 -13 -2 -20 -10 -7 -8 -16 -15
-21 -15 -4 0 -29 -14 -54 -31 -25 -17 -51 -32 -58 -33 -7 -1 -19 -6 -27 -11
-28 -18 -55 -34 -70 -41 -8 -4 -46 -28 -85 -52 -38 -25 -75 -45 -82 -45 -7 0
-13 -4 -13 -8 0 -4 -13 -12 -30 -18 -16 -5 -30 -15 -30 -20 0 -6 -9 -11 -20
-11 -10 0 -23 -6 -27 -12 -4 -7 -30 -24 -58 -38 -27 -14 -51 -28 -53 -32 -2
-5 -10 -8 -17 -8 -8 0 -20 -6 -27 -13 -7 -7 -47 -29 -88 -50 -41 -21 -88 -47
-105 -58 -16 -10 -39 -23 -50 -29 -55 -29 -70 -41 -76 -57 -4 -10 -8 -325 -8
-700 l-1 -682 55 -31 c30 -17 57 -35 60 -41 4 -5 15 -9 26 -9 11 0 22 -7 25
-15 4 -8 13 -15 20 -15 15 0 76 -39 82 -52 2 -5 12 -8 23 -8 11 0 22 -7 25
-15 4 -8 13 -15 21 -15 8 0 26 -9 40 -20 14 -11 32 -20 39 -20 8 0 14 -4 14
-9 0 -5 8 -11 18 -15 9 -3 31 -15 47 -26 17 -11 39 -24 50 -30 11 -6 34 -19
50 -30 17 -11 39 -24 50 -30 11 -5 28 -14 38 -20 9 -5 25 -14 35 -19 9 -6 54
-33 100 -60 46 -28 87 -51 92 -51 4 0 13 -7 20 -15 7 -9 15 -13 18 -11 3 3 17
-2 31 -12 46 -30 66 -42 81 -49 8 -4 33 -18 55 -32 89 -57 92 -57 155 -20 8 5
24 14 35 19 11 6 34 19 50 30 17 11 37 22 45 26 8 3 22 10 30 15 8 5 29 16 45
24 17 9 53 29 80 45 28 16 59 34 70 40 11 6 34 19 50 30 17 11 40 24 52 29 11
5 24 15 28 20 3 6 13 11 22 11 8 0 32 13 52 29 20 15 46 31 59 35 12 4 22 12
22 18 0 6 3 9 6 5 4 -3 23 5 43 18 19 14 41 25 48 25 7 0 13 4 13 9 0 5 8 12
18 15 23 9 76 37 82 45 3 3 23 15 45 26 22 10 59 32 83 47 24 15 45 28 48 28
4 0 33 16 65 36 l59 37 0 697 0 698 -37 23 c-21 12 -58 34 -83 47 -25 14 -47
28 -50 31 -3 3 -30 19 -60 35 -134 70 -150 79 -150 87 0 5 -9 9 -20 9 -11 0
-20 4 -20 9 0 5 -13 14 -30 20 -16 5 -30 15 -30 20 0 6 -8 11 -19 11 -10 0
-24 7 -31 15 -7 8 -19 15 -27 15 -7 0 -16 7 -19 15 -4 8 -10 13 -14 10 -5 -3
-15 2 -23 10 -9 8 -26 20 -39 25 -34 16 -68 36 -81 49 -6 6 -19 11 -29 11 -10
0 -18 4 -18 8 0 5 -25 21 -55 37 -30 15 -55 31 -55 36 0 5 -9 9 -20 9 -11 0
-20 4 -20 9 0 5 -13 14 -30 20 -16 5 -30 15 -30 20 0 6 -9 11 -20 11 -11 0
-20 4 -20 9 0 5 -12 14 -27 20 -36 15 -72 36 -86 50 -6 6 -22 11 -35 11 -20 0
-22 2 -12 15 19 23 2 40 -27 28z m88 -118 c27 -19 56 -35 64 -35 8 0 15 -4 15
-8 0 -4 12 -13 28 -20 50 -23 72 -37 72 -44 0 -5 6 -8 14 -8 8 0 21 -6 28 -14
8 -7 30 -21 48 -31 43 -22 263 -150 310 -180 19 -13 58 -35 85 -50 28 -15 70
-40 95 -56 25 -16 50 -29 55 -30 6 0 17 -7 25 -14 8 -7 26 -18 40 -24 14 -6
39 -20 55 -31 17 -11 49 -30 73 -42 51 -27 59 -66 10 -60 -3 1 -12 -5 -18 -13
-7 -8 -18 -15 -25 -15 -6 0 -20 -9 -30 -20 -10 -11 -21 -17 -26 -15 -4 3 -11
0 -14 -5 -4 -6 -17 -15 -28 -21 -12 -5 -29 -13 -37 -18 -8 -5 -51 -30 -95 -56
-44 -25 -87 -51 -95 -56 -8 -5 -24 -14 -35 -19 -11 -6 -33 -19 -50 -30 -16
-11 -40 -24 -52 -29 -12 -6 -41 -22 -65 -37 -24 -15 -48 -27 -55 -27 -7 0 -14
-6 -17 -14 -3 -7 -12 -13 -19 -13 -8 0 -20 -7 -27 -15 -7 -8 -18 -15 -25 -15
-7 0 -37 -16 -66 -35 -29 -19 -56 -32 -60 -30 -4 3 -9 -2 -13 -10 -3 -8 -11
-15 -18 -15 -7 0 -33 -11 -58 -25 -25 -13 -57 -29 -72 -36 -16 -6 -28 -15 -28
-20 0 -5 -6 -9 -14 -9 -7 0 -19 -6 -25 -14 -18 -22 -46 -12 -146 50 -22 14
-61 34 -87 46 -27 11 -48 25 -48 30 0 5 -4 7 -8 4 -5 -3 -31 9 -58 27 -27 18
-71 43 -98 57 -51 27 -59 31 -121 71 -22 14 -47 29 -55 32 -8 4 -28 16 -45 27
-16 11 -39 24 -50 29 -11 5 -37 21 -58 35 -21 14 -40 26 -42 26 -2 0 -38 20
-79 45 -42 25 -81 45 -85 45 -5 0 -11 4 -13 8 -4 11 -118 77 -147 87 -35 11
-24 35 27 57 26 11 49 24 52 28 3 3 12 10 20 13 8 4 42 23 75 42 33 19 72 39
88 46 15 6 27 15 27 19 0 4 11 11 25 14 14 4 25 11 25 16 0 6 5 10 11 10 6 0
45 20 86 45 40 25 78 45 83 45 5 0 15 6 22 13 7 7 24 18 38 25 14 6 32 16 40
22 37 24 151 90 155 90 3 0 24 11 46 26 44 28 85 51 169 97 30 16 66 38 79 48
35 28 68 23 122 -16z m-1158 -708 c39 -24 79 -47 87 -50 8 -4 29 -15 45 -26
106 -65 236 -141 242 -141 4 0 14 -6 22 -14 16 -14 91 -58 169 -98 23 -12 42
-26 42 -30 0 -4 6 -8 13 -8 6 0 43 -20 80 -45 37 -24 70 -44 72 -44 6 -1 122
-60 150 -77 11 -7 34 -20 51 -29 34 -17 74 -52 74 -63 0 -4 1 -296 3 -650 1
-478 -1 -642 -9 -642 -7 0 -36 16 -65 36 -30 20 -67 43 -84 50 -16 8 -37 19
-45 24 -22 15 -218 129 -270 158 -25 14 -56 33 -69 44 -13 10 -29 18 -37 18
-7 0 -14 4 -16 8 -3 8 -44 33 -143 87 -27 16 -52 32 -55 36 -3 4 -17 13 -30
19 -14 5 -38 19 -55 30 -16 10 -50 29 -75 42 -25 13 -63 35 -84 50 -21 16 -43
28 -47 28 -5 0 -18 8 -29 17 -20 17 -20 29 -20 665 0 357 2 648 5 648 3 0 38
-20 78 -43z m2247 -609 c0 -354 -4 -648 -8 -653 -7 -11 -45 -34 -147 -90 -27
-16 -74 -43 -103 -62 -29 -18 -55 -33 -57 -33 -3 0 -23 -11 -45 -25 -22 -14
-65 -39 -97 -56 -45 -24 -191 -109 -293 -169 -8 -5 -49 -28 -90 -52 -41 -23
-84 -48 -95 -55 -11 -7 -27 -15 -35 -19 -8 -4 -48 -27 -88 -51 -70 -41 -133
-60 -104 -31 9 9 12 167 12 650 l0 637 23 16 c29 21 163 97 252 143 39 20 72
39 75 42 5 5 64 38 125 69 16 9 32 19 35 22 3 4 25 17 50 29 25 12 47 25 50
29 3 3 23 15 45 26 22 11 59 32 81 48 23 15 45 27 49 27 3 0 40 20 81 45 40
25 76 45 78 45 2 0 28 16 57 35 30 19 59 35 66 35 7 0 13 3 13 8 0 8 38 29 58
31 9 1 12 -133 12 -641z"/>
<path d="M14453 9135 c-17 -7 -33 -12 -35 -9 -3 2 -16 -9 -31 -24 -29 -30 -46
-82 -27 -82 6 0 8 -4 5 -10 -3 -5 14 -21 37 -36 34 -22 60 -29 126 -34 46 -4
87 -11 90 -17 4 -6 17 -13 30 -17 12 -4 22 -12 22 -17 0 -5 6 -9 14 -9 8 0 24
-8 37 -18 16 -14 20 -24 14 -38 -4 -10 -9 -23 -11 -29 -10 -39 -42 -80 -64
-83 -36 -5 -84 -37 -99 -66 -40 -73 69 -151 194 -140 59 6 84 16 123 49 27 22
32 34 30 62 -1 22 -10 41 -25 53 -13 10 -23 24 -23 31 0 18 38 95 53 107 7 5
61 17 120 27 101 17 110 17 143 2 76 -37 220 -11 257 46 21 33 21 51 0 83 -42
64 -185 91 -263 49 -19 -11 -39 -18 -45 -16 -5 1 -7 -1 -3 -4 14 -15 -41 -45
-89 -50 -26 -2 -59 -7 -73 -11 -77 -20 -94 -17 -173 31 -69 42 -77 50 -77 77
0 34 -50 88 -81 88 -10 0 -21 5 -24 10 -9 15 -115 11 -152 -5z"/>
<path d="M14079 8289 c-19 -37 -14 -92 16 -153 20 -43 27 -127 11 -138 -12 -8
-46 9 -46 23 0 6 -11 19 -24 30 -13 10 -35 43 -50 73 -62 127 -184 157 -192
48 -4 -58 59 -172 95 -172 6 0 11 -4 11 -10 0 -5 12 -10 28 -10 19 -1 44 -17
85 -55 31 -30 57 -59 57 -64 0 -6 -13 -24 -30 -41 -25 -25 -33 -28 -55 -20
-51 19 -106 -36 -91 -94 10 -41 71 -120 107 -140 63 -35 98 -11 103 70 3 33
40 84 63 84 21 0 75 -133 67 -165 -6 -25 29 -121 54 -150 23 -26 75 -55 99
-55 77 0 64 169 -17 228 -29 22 -106 162 -89 162 6 0 8 4 5 8 -13 21 85 -17
118 -46 64 -56 146 -38 146 34 0 43 -44 130 -77 151 -15 9 -30 20 -33 23 -15
16 -64 10 -85 -10 -19 -18 -30 -21 -52 -15 -15 5 -31 9 -35 10 -5 2 -11 4 -15
5 -5 1 -11 2 -15 1 -5 0 -8 11 -9 27 0 15 -1 45 -2 67 -1 27 4 47 16 60 33 35
40 66 26 110 -17 52 -55 110 -85 130 -35 23 -91 20 -105 -6z"/>
<path d="M15583 8161 c-56 -35 -85 -65 -109 -116 -18 -36 -38 -59 -74 -82 -27
-18 -54 -33 -60 -33 -5 0 -10 -5 -10 -11 0 -5 -4 -7 -10 -4 -5 3 -10 2 -10 -3
0 -6 -13 -14 -28 -20 -23 -8 -33 -6 -53 9 -36 27 -72 23 -121 -14 -84 -64
-132 -172 -113 -257 11 -52 68 -68 137 -39 26 11 108 99 108 117 0 22 91 97
104 85 3 -3 6 -1 6 5 0 7 6 12 14 12 8 0 16 3 18 8 2 4 16 14 33 24 28 15 31
15 68 -3 52 -27 88 -18 140 35 55 56 59 63 81 119 23 62 17 129 -15 163 -27
29 -63 31 -106 5z"/>
<path d="M17250 9650 c-8 -5 -11 -10 -6 -10 5 0 2 -8 -5 -17 -12 -14 -12 -16
1 -9 9 4 8 1 -2 -7 -17 -13 -18 -92 -18 -1383 0 -1224 2 -1372 16 -1392 8 -12
13 -26 10 -31 -3 -5 1 -12 10 -15 20 -8 2377 -8 2397 0 9 3 13 13 10 24 -4 13
1 19 19 22 l23 3 3 1388 2 1387 -24 0 c-18 0 -25 6 -28 23 l-3 22 -1195 2
c-745 2 -1201 -1 -1210 -7z m2366 -80 c9 0 12 -335 11 -1328 0 -731 3 -1333 6
-1339 20 -32 -16 -33 -1181 -36 -1067 -2 -1161 -1 -1171 14 -5 9 -8 19 -6 21
7 7 7 2629 1 2636 -4 3 0 12 8 21 13 14 127 16 1168 14 634 -2 1158 -3 1164
-3z"/>
<path d="M19280 9263 c-24 -8 -40 -35 -40 -65 0 -18 -5 -28 -15 -28 -8 0 -15
-7 -15 -15 0 -8 7 -15 15 -15 12 0 15 -19 15 -110 0 -103 1 -110 20 -110 18 0
20 8 22 108 3 102 4 107 26 110 31 5 29 32 -3 32 -17 0 -25 5 -25 18 0 23 19
42 41 42 22 0 32 27 13 34 -18 7 -33 7 -54 -1z"/>
<path d="M17680 9090 c0 -163 1 -170 20 -170 19 0 20 7 20 133 l0 132 88 -132
c76 -116 90 -133 115 -133 l27 0 0 170 0 170 -25 0 -25 0 0 -132 0 -133 -88
132 c-68 104 -92 133 -109 133 -23 0 -23 0 -23 -170z"/>
<path d="M18044 9136 c-30 -30 -34 -40 -34 -87 0 -99 64 -156 145 -129 52 17
75 53 75 116 0 92 -36 134 -116 134 -28 0 -44 -8 -70 -34z m121 -21 c33 -32
36 -114 5 -145 -29 -29 -74 -26 -100 8 -18 22 -21 36 -17 76 7 80 63 111 112
61z"/>
<path d="M18290 9045 c0 -118 1 -125 20 -125 18 0 20 7 20 81 0 90 9 115 47
130 19 7 32 6 49 -6 22 -14 24 -22 24 -110 0 -88 1 -95 20 -95 19 0 20 7 20
105 0 92 -3 108 -20 125 -24 24 -86 27 -118 4 -20 -14 -22 -14 -22 0 0 9 -9
16 -20 16 -19 0 -20 -7 -20 -125z"/>
<path d="M18584 9136 c-31 -31 -34 -39 -34 -94 0 -71 22 -106 79 -123 49 -14
105 2 128 38 14 21 14 26 2 33 -9 6 -22 1 -39 -15 -36 -34 -82 -33 -109 1 -38
48 -30 54 74 54 104 0 102 -1 85 62 -15 51 -52 78 -107 78 -38 0 -50 -5 -79
-34z m134 -23 c26 -35 15 -43 -58 -43 -79 0 -90 13 -43 50 32 25 79 21 101 -7z"/>
<path d="M18984 9136 c-30 -30 -34 -40 -34 -87 0 -99 64 -156 145 -129 52 17
75 53 75 116 0 92 -36 134 -116 134 -28 0 -44 -8 -70 -34z m121 -21 c33 -32
36 -114 5 -145 -29 -29 -74 -26 -100 8 -18 22 -21 36 -17 76 7 80 63 111 112
61z"/>
<path d="M17600 8515 c0 -168 1 -175 20 -175 18 0 20 7 20 81 0 103 17 138 67
139 43 0 53 -24 53 -126 0 -87 1 -94 20 -94 19 0 20 7 20 103 0 75 -4 108 -15
124 -21 30 -68 38 -106 19 -18 -9 -34 -16 -36 -16 -1 0 -3 27 -3 60 0 53 -2
60 -20 60 -19 0 -20 -7 -20 -175z"/>
<path d="M18780 8515 c0 -168 1 -175 20 -175 11 0 20 7 20 16 0 14 2 14 22 0
61 -43 140 2 153 86 11 70 -20 133 -73 148 -32 10 -44 10 -70 -4 l-32 -17 0
61 c0 53 -2 60 -20 60 -19 0 -20 -7 -20 -175z m155 25 c13 -15 19 -36 19 -72
0 -43 -4 -54 -28 -74 -33 -29 -47 -30 -77 -5 -20 16 -24 29 -24 74 0 40 5 61
19 76 24 27 67 27 91 1z"/>
<path d="M17498 8666 c-11 -8 -18 -26 -18 -45 0 -21 -5 -31 -15 -31 -8 0 -15
-7 -15 -15 0 -8 7 -15 15 -15 12 0 15 -18 15 -98 0 -109 6 -122 56 -122 27 0
31 3 27 20 -3 11 -14 20 -24 20 -17 0 -19 9 -19 90 0 83 1 90 20 90 11 0 20 7
20 15 0 8 -9 15 -19 15 -16 0 -20 8 -23 44 -3 40 -5 43 -20 32z"/>
<path d="M17924 8586 c-17 -8 -39 -24 -48 -37 -19 -28 -22 -116 -4 -154 30
-65 150 -75 195 -16 33 43 -1 56 -41 16 -14 -14 -37 -25 -51 -25 -31 0 -75 41
-75 70 0 19 6 20 95 20 105 0 107 2 81 63 -27 65 -90 91 -152 63z m98 -43 c10
-9 18 -24 18 -35 0 -16 -9 -18 -70 -18 -56 0 -70 3 -70 15 0 46 84 73 122 38z"/>
<path d="M18323 8585 c-81 -35 -86 -198 -6 -234 45 -20 92 -13 124 18 34 34
38 61 9 61 -11 0 -20 -4 -20 -10 0 -18 -39 -50 -60 -50 -36 0 -70 44 -70 90 0
42 14 79 34 92 24 16 66 8 81 -16 11 -16 22 -22 35 -19 23 6 24 8 9 35 -10 19
-66 48 -91 48 -7 -1 -27 -7 -45 -15z"/>
<path d="M19104 8586 c-17 -8 -39 -24 -48 -37 -19 -28 -22 -116 -4 -154 30
-65 150 -75 195 -16 33 43 -1 56 -41 16 -14 -14 -37 -25 -51 -25 -31 0 -75 41
-75 70 0 19 6 20 95 20 105 0 107 2 81 63 -27 65 -90 91 -152 63z m98 -43 c10
-9 18 -24 18 -35 0 -16 -9 -18 -70 -18 -56 0 -70 3 -70 15 0 46 84 73 122 38z"/>
<path d="M19354 8586 c-50 -22 -60 -72 -19 -104 13 -10 44 -25 69 -32 63 -17
77 -37 47 -61 -31 -26 -57 -24 -87 6 -14 14 -31 25 -39 25 -23 0 -18 -28 10
-55 19 -20 34 -25 75 -25 41 0 56 5 75 25 49 48 28 97 -53 121 -72 22 -90 37
-72 58 19 23 77 21 90 -4 11 -21 35 -27 45 -10 10 17 -13 48 -46 59 -41 14
-57 13 -95 -3z"/>
<path d="M18510 8490 c0 -94 2 -103 25 -125 28 -29 79 -33 113 -9 20 14 22 14
22 0 0 -9 9 -16 20 -16 19 0 20 7 20 125 0 118 -1 125 -20 125 -18 0 -20 -7
-20 -84 0 -65 -4 -88 -17 -104 -28 -32 -59 -36 -82 -13 -18 18 -21 34 -21 111
0 83 -1 90 -20 90 -19 0 -20 -7 -20 -100z"/>
<path d="M18180 7940 c0 -163 1 -170 20 -170 19 0 20 7 20 170 0 163 -1 170
-20 170 -19 0 -20 -7 -20 -170z"/>
<path d="M18450 8048 c0 -59 -1 -60 -18 -45 -21 19 -73 22 -103 7 -30 -17 -49
-64 -49 -124 0 -44 5 -60 25 -84 32 -38 75 -49 115 -29 16 9 30 11 30 6 0 -5
9 -9 20 -9 19 0 20 7 20 170 0 163 -1 170 -20 170 -18 0 -20 -7 -20 -62z m-31
-75 c24 -20 37 -78 27 -117 -14 -55 -68 -74 -106 -36 -31 31 -28 113 5 145 29
30 45 31 74 8z"/>
<path d="M18690 7940 c0 -163 1 -170 20 -170 11 0 20 5 20 10 0 6 13 4 31 -5
85 -44 169 55 139 164 -19 70 -94 103 -148 65 l-22 -15 0 60 c0 54 -2 61 -20
61 -19 0 -20 -7 -20 -170z m149 31 c48 -48 27 -162 -32 -169 -37 -4 -65 21
-73 64 -16 88 52 158 105 105z"/>
<path d="M17441 8006 c-34 -19 -50 -54 -51 -111 0 -95 65 -151 145 -125 56 18
92 90 45 90 -11 0 -20 -6 -20 -13 0 -34 -65 -60 -96 -39 -41 27 -46 121 -9
157 31 32 60 32 89 0 24 -25 56 -34 56 -14 0 6 -13 24 -29 40 -33 32 -87 39
-130 15z"/>
<path d="M17664 7986 c-30 -30 -34 -40 -34 -87 0 -99 64 -156 145 -129 52 17
75 53 75 116 0 92 -36 134 -116 134 -28 0 -44 -8 -70 -34z m121 -21 c33 -32
36 -114 5 -145 -29 -29 -74 -26 -100 8 -18 22 -21 36 -17 76 7 80 63 111 112
61z"/>
<path d="M17910 7921 c0 -117 3 -127 42 -147 33 -17 72 -12 101 13 15 15 17
15 17 0 0 -10 8 -17 20 -17 19 0 20 7 20 125 0 118 -1 125 -20 125 -19 0 -20
-7 -20 -90 0 -99 -15 -130 -64 -130 -42 0 -56 34 -56 132 0 81 -2 88 -20 88
-19 0 -20 -7 -20 -99z"/>
<path d="M18984 7986 c-31 -31 -34 -39 -34 -94 0 -71 22 -106 79 -123 49 -14
105 2 128 38 14 21 14 26 2 33 -9 6 -22 1 -39 -15 -36 -34 -82 -33 -109 1 -38
48 -30 54 74 54 104 0 102 -1 85 62 -15 51 -52 78 -107 78 -38 0 -50 -5 -79
-34z m134 -23 c26 -35 15 -43 -58 -43 -79 0 -90 13 -43 50 32 25 79 21 101 -7z"/>
<path d="M19386 7999 c-31 -24 -35 -59 -7 -59 10 0 21 9 24 20 11 44 112 31
112 -15 0 -20 -11 -24 -103 -41 -57 -11 -82 -83 -41 -120 25 -22 99 -25 124
-4 12 10 19 10 27 2 18 -18 51 -15 44 4 -3 9 -6 56 -6 105 0 76 -3 92 -20 109
-28 28 -117 28 -154 -1z m134 -123 c0 -34 -20 -64 -50 -74 -39 -14 -80 0 -80
27 0 25 18 39 66 50 56 13 64 13 64 -3z"/>
<path d="M18670 7510 c0 -13 7 -20 20 -20 13 0 20 7 20 20 0 13 -7 20 -20 20
-13 0 -20 -7 -20 -20z"/>
<path d="M18163 7513 c-7 -2 -13 -20 -13 -39 0 -24 -5 -34 -15 -34 -8 0 -15
-7 -15 -15 0 -8 7 -15 15 -15 12 0 15 -18 15 -98 0 -109 6 -122 57 -122 24 0
31 4 27 15 -3 8 -14 17 -25 20 -17 6 -19 17 -19 96 0 82 1 89 20 89 11 0 20 7
20 15 0 8 -9 15 -20 15 -17 0 -20 7 -20 40 0 40 -3 43 -27 33z"/>
<path d="M18563 7513 c-7 -2 -13 -20 -13 -39 0 -24 -5 -34 -15 -34 -8 0 -15
-7 -15 -15 0 -8 7 -15 15 -15 12 0 15 -18 15 -98 0 -109 6 -122 57 -122 24 0
31 4 27 15 -3 8 -14 17 -25 20 -17 6 -19 17 -19 96 0 82 1 89 20 89 11 0 20 7
20 15 0 8 -9 15 -20 15 -17 0 -20 7 -20 40 0 40 -3 43 -27 33z"/>
<path d="M17710 7315 c0 -116 1 -125 19 -125 17 0 19 9 23 95 3 102 11 117 55
119 18 1 29 7 31 19 3 13 -4 17 -30 17 -19 0 -39 -5 -46 -12 -9 -9 -12 -9 -12
0 0 7 -9 12 -20 12 -19 0 -20 -7 -20 -125z"/>
<path d="M17904 7422 c-32 -25 -44 -55 -44 -107 0 -52 21 -99 49 -115 11 -5
41 -10 66 -10 38 0 52 5 76 29 26 27 29 36 29 96 0 60 -3 69 -29 96 -25 24
-38 29 -78 29 -30 0 -56 -7 -69 -18z m115 -38 c46 -58 14 -164 -49 -164 -40 0
-70 41 -70 95 0 54 30 95 70 95 19 0 36 -9 49 -26z"/>
<path d="M18304 7428 c-12 -5 -27 -21 -32 -33 -15 -33 16 -39 45 -8 26 27 74
30 98 7 30 -30 14 -48 -53 -60 -34 -6 -71 -19 -82 -29 -25 -23 -26 -76 -2 -98
23 -21 100 -22 129 -2 19 13 22 13 27 0 3 -8 15 -15 27 -15 17 0 20 4 15 23
-3 12 -6 59 -6 105 0 104 -14 122 -92 121 -29 0 -63 -5 -74 -11z m126 -137 c0
-34 -38 -71 -75 -71 -70 0 -75 59 -5 77 65 17 80 16 80 -6z"/>
<path d="M18670 7315 c0 -118 1 -125 20 -125 19 0 20 7 20 125 0 118 -1 125
-20 125 -19 0 -20 -7 -20 -125z"/>
<path d="M18814 7422 c-32 -25 -44 -55 -44 -107 0 -52 21 -99 49 -115 11 -5
41 -10 66 -10 38 0 52 5 76 29 26 27 29 36 29 96 0 60 -3 69 -29 96 -25 24
-38 29 -78 29 -30 0 -56 -7 -69 -18z m115 -38 c46 -58 14 -164 -49 -164 -40 0
-70 41 -70 95 0 54 30 95 70 95 19 0 36 -9 49 -26z"/>
<path d="M19050 7315 c0 -118 1 -125 20 -125 18 0 20 7 20 85 0 78 2 88 25
110 29 30 56 32 78 7 13 -15 17 -39 17 -110 0 -85 1 -92 20 -92 19 0 20 7 20
105 0 92 -3 108 -20 125 -24 24 -86 27 -118 4 -20 -14 -22 -14 -22 0 0 9 -9
16 -20 16 -19 0 -20 -7 -20 -125z"/>
<path d="M7376 9625 c-8 -8 -17 -15 -19 -15 -5 0 -111 -59 -162 -91 -16 -10
-61 -35 -100 -55 -38 -20 -83 -46 -100 -58 -16 -11 -39 -26 -50 -32 -77 -42
-330 -185 -377 -213 -15 -9 -92 -53 -172 -99 -80 -46 -150 -90 -157 -98 -6 -8
-17 -14 -25 -14 -7 0 -20 -10 -28 -22 -14 -20 -16 -103 -16 -698 0 -371 4
-679 8 -685 8 -11 60 -48 82 -58 8 -4 29 -16 45 -27 17 -10 50 -29 75 -42 25
-13 46 -26 48 -30 2 -3 27 -19 55 -34 29 -14 54 -29 57 -33 3 -3 35 -22 73
-41 37 -19 67 -38 67 -42 0 -5 10 -12 23 -17 42 -17 72 -32 109 -54 21 -12 57
-33 80 -46 24 -13 62 -36 86 -52 24 -16 45 -29 48 -29 3 0 12 -7 20 -15 9 -8
24 -15 34 -15 10 0 21 -7 24 -16 3 -8 10 -13 15 -10 5 3 19 -2 32 -12 13 -10
31 -22 39 -25 8 -4 29 -16 45 -27 17 -11 37 -23 45 -27 8 -3 34 -19 57 -35
l43 -29 42 21 c68 34 103 53 108 59 3 3 23 15 45 26 22 10 51 27 64 37 13 10
27 15 32 12 5 -3 9 0 9 6 0 6 10 15 23 20 12 6 49 26 82 45 33 19 71 40 85 47
14 7 27 15 30 19 3 3 36 23 73 43 38 20 79 44 92 52 13 9 25 14 27 13 2 -1 22
10 45 24 24 15 45 27 48 27 2 0 29 16 59 35 29 19 56 31 60 28 3 -4 6 -2 6 4
0 6 12 16 28 23 45 19 72 34 72 42 0 3 16 12 35 18 19 6 33 16 30 21 -4 5 3 9
13 9 11 0 25 7 32 15 7 8 18 15 25 15 7 0 26 12 44 28 l31 27 0 677 c1 713 1
703 -44 727 -12 6 -34 20 -51 30 -16 11 -61 38 -100 61 -38 22 -84 49 -101 59
-17 10 -51 30 -75 43 -24 13 -62 35 -84 49 -78 50 -144 87 -164 94 -12 3 -21
10 -21 14 0 4 -19 17 -42 30 -24 12 -52 27 -63 34 -75 46 -101 61 -106 62 -4
0 -28 14 -55 31 -27 17 -76 46 -109 64 -33 18 -92 53 -131 77 -39 23 -73 43
-77 43 -3 0 -12 -7 -21 -15z m189 -141 c72 -42 150 -88 175 -102 25 -13 53
-31 63 -40 9 -8 17 -12 17 -8 0 4 19 -6 43 -21 75 -50 81 -53 125 -74 23 -11
42 -24 42 -29 0 -6 4 -10 10 -10 5 0 54 -26 107 -58 54 -32 105 -61 113 -65 8
-4 22 -11 30 -17 47 -30 204 -120 211 -120 5 0 13 -8 18 -18 8 -16 3 -22 -35
-40 -24 -12 -63 -34 -86 -49 -24 -15 -62 -37 -85 -49 -23 -11 -48 -25 -55 -31
-7 -6 -24 -14 -38 -19 -14 -5 -87 -45 -163 -89 -188 -109 -224 -130 -282 -160
-27 -15 -63 -36 -80 -48 -16 -13 -50 -33 -75 -45 -25 -13 -52 -27 -60 -32 -8
-5 -50 -30 -92 -55 l-76 -45 -77 45 c-41 25 -80 45 -84 45 -5 0 -11 4 -13 8
-1 5 -48 34 -103 64 -55 31 -117 68 -138 82 -21 14 -40 26 -42 26 -2 0 -71 40
-152 88 -81 48 -168 98 -193 110 -25 13 -63 32 -85 44 -22 11 -56 30 -75 42
-65 42 -90 56 -93 54 -2 -2 -11 5 -21 15 -10 9 -23 17 -31 17 -7 0 -15 7 -18
15 -6 14 1 18 163 107 30 16 62 36 70 42 8 7 71 43 140 81 102 56 234 132 320
186 42 25 96 53 102 51 3 -1 12 5 18 13 7 8 16 15 21 15 5 0 33 16 62 34 30
19 74 46 99 60 120 67 140 75 156 66 9 -5 76 -44 147 -86z m-1225 -673 c25
-13 67 -38 94 -54 27 -17 59 -33 70 -34 11 -2 27 -9 35 -17 9 -7 23 -16 31
-20 8 -3 29 -15 45 -26 17 -10 50 -29 75 -42 25 -13 51 -29 58 -35 7 -7 19
-13 27 -13 7 0 16 -7 19 -16 3 -8 10 -13 15 -10 5 4 16 0 24 -8 8 -8 45 -31
83 -52 38 -20 76 -43 85 -50 8 -8 18 -14 22 -14 3 0 51 -27 105 -60 55 -33
104 -60 110 -60 5 0 12 -7 16 -15 3 -8 14 -15 24 -15 11 0 25 -7 32 -15 7 -8
18 -15 25 -15 32 0 34 -45 33 -670 0 -344 3 -633 7 -642 15 -36 -35 -18 -159
57 -68 41 -127 75 -130 75 -3 0 -22 12 -43 26 -21 14 -47 30 -58 35 -11 5 -33
18 -50 29 -16 11 -39 24 -50 30 -11 5 -47 26 -80 45 -33 19 -69 39 -80 44 -11
5 -37 21 -58 35 -21 14 -40 26 -43 26 -2 0 -45 25 -95 55 -50 30 -92 55 -95
55 -2 0 -40 23 -84 50 -44 28 -83 50 -87 50 -30 0 -32 45 -33 679 0 677 -1
670 45 632 11 -9 40 -27 65 -40z m2223 24 c5 -12 4 -21 -3 -23 -5 -2 -8 -8 -5
-12 7 -11 7 -1169 0 -1180 -3 -5 -1 -11 4 -15 6 -3 6 -15 0 -33 -7 -19 -28
-38 -72 -61 -34 -19 -93 -53 -132 -76 -38 -23 -80 -45 -92 -49 -13 -4 -23 -12
-23 -17 0 -5 -5 -9 -11 -9 -6 0 -54 -26 -108 -58 -53 -32 -103 -62 -111 -65
-8 -4 -42 -23 -75 -42 -33 -20 -72 -40 -87 -46 -16 -6 -28 -14 -28 -19 0 -4
-8 -11 -17 -14 -10 -3 -27 -12 -38 -19 -30 -19 -89 -51 -95 -52 -3 0 -19 -9
-35 -20 -45 -30 -65 -41 -122 -72 -29 -15 -53 -31 -53 -35 0 -4 -14 -8 -31 -8
-26 0 -29 3 -20 14 8 10 11 189 11 651 -1 632 1 665 31 665 5 0 18 9 29 20 12
12 25 18 30 15 5 -3 12 0 15 5 4 6 17 16 28 21 12 5 36 18 52 29 17 11 39 24
50 30 11 6 34 19 50 29 17 11 50 30 75 42 25 12 52 28 60 35 8 7 22 14 30 16
8 2 17 5 20 8 18 18 72 50 83 50 8 0 20 7 27 15 7 8 19 15 26 15 8 0 14 4 14
10 0 5 11 12 25 16 14 3 25 11 25 17 0 6 3 8 6 4 4 -3 13 1 21 9 8 8 18 12 23
9 4 -3 10 2 14 10 3 8 15 15 26 15 11 0 20 4 20 9 0 5 26 21 58 36 31 15 71
34 87 42 17 9 44 23 60 31 17 9 52 30 79 48 55 37 67 38 79 9z"/>
<path d="M7055 9133 c-39 -21 -66 -54 -59 -73 3 -8 6 -19 7 -25 4 -19 72 -52
119 -58 48 -7 138 -54 138 -73 0 -6 -13 -17 -30 -24 -16 -7 -30 -16 -30 -20 0
-3 -6 -7 -12 -8 -67 -9 -95 -14 -108 -19 -8 -4 -18 -6 -21 -5 -14 2 -60 -46
-64 -67 -11 -61 112 -104 200 -70 36 15 75 48 75 64 0 19 118 78 138 69 9 -4
19 -8 22 -9 22 -6 80 -50 98 -75 36 -49 106 -71 177 -56 11 3 25 5 31 5 21 2
64 47 64 67 0 42 -53 79 -120 83 -41 3 -78 15 -90 30 -3 4 -18 12 -34 19 -28
12 -28 13 -11 32 10 11 22 20 28 20 5 0 21 8 35 19 15 10 41 17 57 16 52 -4
124 35 137 75 3 8 -1 27 -8 41 -42 83 -219 72 -261 -16 -9 -19 -26 -38 -37
-41 -11 -4 -32 -15 -47 -26 -30 -22 -58 -20 -116 10 -40 21 -88 74 -77 85 3 3
-12 15 -35 26 -48 25 -124 27 -166 4z"/>
<path d="M6564 8336 c-34 -15 -84 -64 -84 -82 0 -6 -6 -17 -14 -23 -14 -12
-30 -83 -30 -131 0 -50 15 -153 25 -171 5 -11 7 -19 3 -19 -3 0 -1 -7 6 -15 7
-8 10 -15 6 -15 -4 0 3 -19 15 -42 12 -24 21 -44 19 -46 -5 -6 34 -72 42 -72
5 0 8 -6 8 -13 0 -13 89 -128 130 -166 49 -46 190 -131 190 -115 0 4 7 1 14
-6 21 -16 104 -10 147 11 34 17 92 70 91 82 0 4 8 23 18 44 39 80 7 287 -67
435 -79 156 -242 315 -358 347 -53 15 -123 13 -161 -3z m231 -233 c48 -25 78
-58 128 -138 48 -79 63 -126 66 -206 2 -63 1 -68 -33 -103 -30 -32 -40 -37
-68 -33 -57 9 -115 45 -165 103 -26 30 -48 58 -48 62 -1 4 -7 18 -15 32 -41
71 -56 192 -32 251 24 59 89 71 167 32z"/>
<path d="M8241 8175 c-40 -13 -104 -73 -122 -115 -7 -16 -17 -26 -21 -24 -4 3
-5 -2 -2 -10 6 -17 -51 -62 -122 -96 -24 -12 -46 -26 -50 -31 -8 -14 -44 -11
-60 6 -20 19 -78 19 -94 0 -6 -8 -16 -13 -21 -12 -15 4 -80 -76 -105 -130 -34
-72 -31 -134 9 -173 17 -16 39 -28 51 -27 61 7 139 73 176 152 15 32 38 59 55
65 6 1 27 14 47 26 21 13 42 24 48 24 5 0 10 4 10 10 0 20 47 21 81 2 19 -11
42 -18 51 -17 42 7 138 88 138 115 0 5 4 10 8 10 11 0 42 99 42 133 0 69 -57
113 -119 92z"/>
<path d="M11040 9595 c-19 -14 -38 -25 -43 -25 -5 0 -23 -11 -40 -24 -18 -13
-42 -27 -54 -31 -13 -3 -23 -11 -23 -17 0 -6 -3 -9 -6 -5 -3 3 -30 -10 -59
-29 -30 -19 -57 -34 -61 -34 -4 0 -30 -14 -58 -32 -28 -17 -64 -39 -81 -48
-16 -10 -59 -35 -95 -55 -36 -21 -78 -45 -95 -53 -16 -8 -41 -23 -55 -32 -14
-10 -50 -31 -80 -47 -30 -16 -95 -54 -145 -83 -49 -29 -103 -60 -120 -69 -101
-56 -144 -91 -150 -123 -3 -18 -4 -328 -3 -689 3 -634 4 -658 22 -678 20 -22
35 -31 124 -76 28 -15 52 -30 52 -35 0 -4 8 -10 18 -14 21 -7 55 -28 63 -39 3
-5 12 -9 20 -11 15 -2 153 -81 179 -102 8 -6 39 -25 68 -40 29 -16 79 -44 110
-61 31 -18 66 -37 77 -42 11 -5 37 -21 58 -35 21 -14 44 -26 52 -26 8 0 15 -4
15 -9 0 -5 10 -13 23 -17 12 -4 38 -20 58 -35 20 -16 44 -29 52 -29 8 0 20 -7
27 -15 7 -8 19 -15 27 -15 7 0 16 -7 19 -15 4 -8 9 -13 13 -10 4 2 31 -11 60
-30 51 -34 104 -42 120 -18 6 9 36 23 47 22 4 0 10 3 13 8 3 4 26 19 51 32 25
14 51 31 58 38 7 7 18 13 23 13 5 0 28 12 52 27 23 15 46 27 50 28 4 0 11 5
15 11 4 6 19 14 35 18 15 3 27 11 27 16 0 6 9 10 19 10 11 0 23 4 26 10 6 9
126 80 142 83 4 1 16 8 26 17 10 8 19 13 21 10 2 -3 11 2 21 10 20 16 50 35
82 49 11 5 24 15 28 20 3 6 15 11 25 11 10 0 20 4 22 8 2 5 39 28 83 52 44 23
94 53 112 66 17 13 37 24 43 24 7 0 29 13 49 29 20 15 46 33 59 40 l22 12 0
704 0 704 -33 25 c-19 15 -39 26 -44 26 -6 0 -16 7 -23 15 -7 9 -63 44 -124
79 -282 161 -432 249 -447 262 -8 8 -19 14 -23 14 -3 0 -23 11 -44 23 -20 13
-50 32 -67 43 -16 10 -33 19 -36 19 -4 0 -28 14 -55 31 -27 17 -76 47 -109 65
-33 19 -84 48 -114 66 -65 39 -75 40 -121 8z m185 -110 c69 -41 127 -75 130
-75 8 0 130 -75 137 -85 4 -5 8 -6 8 -2 0 5 15 -2 32 -15 38 -27 59 -40 108
-64 19 -10 37 -21 40 -24 3 -3 16 -11 30 -18 14 -7 39 -21 55 -32 17 -11 41
-26 55 -33 48 -24 125 -71 128 -79 2 -4 8 -8 13 -8 5 0 27 -11 48 -24 21 -14
42 -22 45 -19 3 4 6 1 6 -5 0 -7 5 -12 10 -12 15 0 140 -82 140 -91 0 -4 -26
-22 -57 -40 -32 -18 -65 -38 -73 -45 -8 -7 -60 -36 -115 -65 -55 -29 -113 -62
-130 -74 -35 -25 -167 -99 -177 -100 -4 0 -16 -8 -28 -17 -11 -10 -20 -14 -20
-10 0 4 -4 3 -8 -3 -4 -5 -25 -20 -47 -32 -22 -11 -57 -31 -78 -42 -21 -12
-35 -16 -31 -9 4 7 -1 6 -12 -3 -16 -14 -224 -138 -322 -193 -33 -18 -34 -18
-63 3 -15 11 -30 21 -33 21 -2 0 -69 38 -147 85 -78 47 -153 88 -166 91 -13 4
-23 10 -23 14 0 4 -8 10 -17 13 -19 6 -67 34 -228 130 -53 31 -98 57 -101 57
-2 0 -44 24 -92 53 -207 126 -240 145 -259 151 -33 11 -17 39 35 64 26 13 63
32 82 44 19 11 83 49 143 84 59 35 112 64 117 64 6 0 10 5 10 12 0 6 3 9 6 6
3 -4 40 14 82 40 42 25 124 72 182 105 58 33 121 69 140 80 19 11 55 32 80 46
25 14 47 29 48 33 2 4 7 6 12 3 4 -3 13 2 20 10 7 8 19 15 26 15 8 0 14 5 14
12 0 6 3 9 6 5 3 -3 23 4 43 17 30 19 51 30 69 35 1 1 58 -33 127 -74z m1015
-1286 l0 -644 -37 -31 c-20 -17 -62 -44 -92 -59 -31 -16 -58 -32 -61 -35 -5
-5 -56 -33 -125 -69 -16 -9 -32 -18 -35 -21 -3 -3 -23 -14 -44 -25 -22 -11
-62 -35 -90 -52 -28 -18 -54 -33 -59 -33 -5 0 -21 -8 -35 -19 -39 -27 -203
-121 -213 -121 -4 0 -14 -6 -21 -12 -8 -7 -29 -21 -48 -32 -70 -37 -106 -58
-135 -77 -16 -10 -37 -22 -45 -25 -8 -4 -22 -12 -30 -19 -8 -7 -25 -15 -37
-17 l-21 -6 1 655 2 655 24 19 c12 10 27 17 31 14 4 -3 13 2 20 10 7 8 19 15
27 15 7 0 16 7 19 15 4 8 14 15 24 15 10 0 23 7 30 15 7 8 18 15 26 15 7 0 19
6 26 13 7 6 33 22 58 35 25 13 59 32 75 42 17 11 41 25 55 31 58 25 163 83
295 162 55 33 125 74 155 90 118 63 208 118 225 137 10 11 22 17 27 12 5 -5 8
-298 8 -653z m-2270 641 c0 -5 4 -10 9 -10 5 0 50 -25 100 -55 51 -30 94 -55
97 -55 3 0 29 -15 57 -34 29 -18 68 -42 87 -52 19 -11 38 -23 41 -27 3 -5 8
-8 10 -6 2 1 22 -9 44 -23 65 -42 126 -76 192 -108 34 -16 64 -34 68 -40 3 -5
15 -10 26 -10 10 0 19 -4 19 -9 0 -5 10 -13 23 -17 12 -4 40 -18 62 -33 22
-14 55 -34 74 -44 19 -10 52 -31 75 -45 23 -14 55 -34 71 -43 l30 -16 2 -639
c2 -352 5 -644 7 -651 7 -17 -18 -23 -41 -10 -11 7 -42 24 -69 40 -27 15 -62
36 -79 47 -31 19 -84 50 -145 83 -19 10 -48 27 -65 37 -16 10 -49 29 -72 41
-24 13 -43 26 -43 31 0 4 -3 7 -7 6 -5 -2 -33 13 -63 32 -30 19 -59 37 -65 39
-5 2 -38 21 -72 42 -33 21 -64 35 -67 32 -3 -4 -6 -1 -6 5 0 7 -7 12 -15 12
-8 0 -15 4 -15 10 0 5 -11 12 -25 16 -14 3 -25 10 -25 14 0 5 -9 12 -21 15
-11 4 -54 27 -95 51 -41 24 -79 44 -84 44 -6 0 -10 4 -10 8 0 5 -12 14 -26 20
-14 7 -22 17 -19 22 3 6 3 10 -2 10 -4 0 -7 288 -5 640 2 631 3 640 22 640 11
0 20 -4 20 -10z"/>
<path d="M11320 9142 c-19 -1 -42 -6 -50 -9 -8 -3 -21 -7 -28 -9 -26 -5 -82
-49 -89 -69 -4 -11 -7 -33 -7 -50 -1 -25 -9 -34 -47 -55 -25 -14 -63 -36 -85
-50 -33 -21 -49 -24 -111 -21 -54 2 -82 -2 -115 -17 -78 -35 -111 -84 -88
-128 12 -22 90 -81 90 -68 0 4 7 1 15 -6 19 -16 145 -22 145 -7 0 5 3 8 6 4 9
-9 75 27 102 56 17 18 23 34 20 58 -3 32 1 36 47 61 28 14 55 30 60 35 41 35
68 43 137 42 84 0 101 3 145 26 42 21 63 51 63 92 0 41 -46 87 -99 98 -11 3
-30 7 -41 9 -11 3 -23 6 -28 8 -4 2 -23 2 -42 0z"/>
<path d="M11698 8320 c-29 -9 -87 -50 -87 -62 -1 -4 -9 -17 -18 -28 -24 -28
-52 -99 -52 -135 -1 -35 33 -96 51 -93 10 2 14 -22 16 -92 l3 -96 -46 -63
c-61 -82 -99 -119 -133 -127 -36 -9 -67 -34 -103 -84 -36 -49 -45 -71 -53
-128 -7 -51 6 -82 42 -103 44 -25 103 0 154 64 44 57 56 81 62 133 4 34 12 48
46 84 31 34 60 70 60 76 0 8 22 29 42 40 9 5 40 7 68 5 48 -3 53 -6 66 -36 7
-18 21 -40 29 -49 19 -19 67 -21 98 -5 32 17 108 99 102 110 -4 5 -2 9 3 9 5
0 15 24 22 54 18 77 -5 133 -60 143 -20 4 -100 -26 -100 -38 0 -21 -59 -39
-107 -32 -42 6 -79 24 -68 34 2 3 5 40 6 84 1 59 7 87 20 107 11 14 19 29 19
33 0 4 7 22 16 41 23 48 13 112 -21 141 -28 25 -35 26 -77 13z"/>
<path d="M10429 8284 c-16 -5 -25 -23 -35 -67 -2 -10 5 -36 17 -59 19 -37 35
-160 23 -180 -5 -8 -64 14 -64 24 0 4 -6 8 -14 8 -8 0 -27 17 -43 39 -30 43
-78 79 -112 86 -13 2 -31 -5 -45 -18 -65 -60 29 -232 123 -226 20 2 42 0 49
-5 7 -4 12 -5 12 -2 0 4 21 -9 48 -27 l47 -34 -1 -76 c0 -58 -5 -81 -18 -96
-34 -38 -18 -110 41 -179 36 -42 99 -55 124 -25 17 19 31 63 21 63 -4 0 -8 14
-9 31 -1 18 -9 39 -17 48 -18 21 -20 160 -2 157 21 -3 80 -49 137 -108 56 -58
81 -68 124 -52 60 24 20 168 -63 222 -14 9 -45 17 -69 18 -25 1 -52 9 -62 18
-10 9 -22 16 -28 16 -5 0 -20 9 -33 20 -20 17 -22 26 -18 95 3 60 7 79 21 86
19 11 22 55 7 109 -19 69 -106 130 -161 114z"/>
<path d="M1838 6507 c-7 -7 -24 -18 -38 -24 -14 -7 -47 -26 -75 -42 -27 -16
-70 -40 -95 -52 -25 -12 -52 -28 -60 -35 -8 -7 -22 -14 -30 -16 -8 -2 -17 -5
-20 -8 -18 -18 -72 -50 -83 -50 -8 0 -20 -7 -27 -15 -7 -8 -18 -15 -25 -15 -7
0 -15 -7 -19 -15 -3 -8 -14 -15 -25 -15 -11 0 -23 -5 -26 -11 -4 -5 -17 -15
-28 -20 -34 -15 -68 -36 -80 -48 -6 -6 -19 -11 -28 -11 -9 0 -19 -7 -23 -15
-3 -8 -14 -15 -24 -15 -11 0 -25 -7 -32 -15 -7 -8 -20 -15 -29 -15 -10 0 -43
-15 -74 -34 -31 -19 -57 -31 -57 -28 0 4 -4 2 -8 -4 -4 -6 -41 -30 -82 -54
-161 -92 -187 -109 -193 -123 -3 -7 -5 -320 -5 -696 l0 -683 23 -24 c13 -13
31 -24 40 -24 8 0 15 -4 15 -9 0 -5 10 -13 22 -17 12 -3 28 -13 36 -20 7 -8
20 -14 28 -14 8 0 14 -4 14 -10 0 -5 6 -10 14 -10 8 0 21 -7 30 -15 8 -8 25
-19 38 -25 26 -11 61 -32 68 -41 3 -4 15 -9 28 -13 12 -4 22 -12 22 -17 0 -5
5 -9 11 -9 6 0 71 -36 144 -80 73 -44 138 -80 144 -80 6 0 11 -4 11 -9 0 -5
10 -13 22 -17 12 -3 39 -19 61 -35 22 -16 44 -29 49 -29 4 0 27 -12 51 -27 59
-38 80 -51 97 -59 8 -4 17 -10 20 -13 3 -4 16 -12 30 -19 14 -7 34 -18 45 -25
11 -7 43 -25 70 -41 28 -16 52 -32 55 -35 3 -4 10 -6 15 -6 11 1 57 25 65 34
5 6 52 32 125 70 16 9 32 19 35 22 3 3 21 14 40 24 19 11 72 41 116 67 45 27
87 48 93 48 6 0 11 4 11 9 0 5 8 11 18 14 17 6 72 37 82 47 3 3 23 14 45 25
22 11 58 32 80 46 22 15 72 44 110 65 39 21 72 40 75 43 5 6 38 24 115 64 22
12 42 23 45 26 9 11 45 31 73 42 15 6 27 15 27 19 0 5 10 12 23 16 12 4 25 12
29 18 4 6 8 324 8 706 l0 695 -52 34 c-29 19 -65 43 -80 53 -15 10 -31 18 -36
18 -4 0 -17 8 -28 18 -10 10 -21 18 -24 18 -3 1 -43 23 -89 50 -47 27 -87 49
-90 49 -20 2 -51 18 -51 26 0 5 -9 9 -19 9 -11 0 -23 5 -26 11 -4 5 -17 15
-28 20 -12 5 -35 18 -52 29 -16 11 -39 24 -50 30 -42 23 -67 38 -78 49 -6 6
-17 11 -24 11 -15 0 -76 40 -81 53 -2 4 -9 7 -17 7 -7 0 -18 7 -25 15 -7 8
-21 15 -31 15 -11 0 -19 4 -19 10 0 5 -25 21 -55 35 -30 15 -55 31 -55 36 0 6
-4 8 -9 5 -5 -3 -20 3 -34 14 -14 11 -32 20 -40 20 -8 0 -20 7 -27 15 -7 8
-19 15 -27 15 -7 0 -16 7 -19 15 -7 18 -48 20 -66 2z m137 -95 c11 -6 31 -18
45 -24 14 -7 31 -18 38 -25 7 -7 18 -13 23 -13 11 0 112 -61 120 -73 3 -5 10
-8 15 -8 5 1 16 -4 24 -11 8 -7 26 -19 40 -26 23 -12 51 -27 165 -94 26 -16
51 -28 56 -28 5 0 9 -4 9 -8 0 -5 21 -19 48 -32 26 -12 106 -58 179 -101 72
-44 136 -79 141 -79 5 0 20 -10 33 -21 13 -12 36 -26 52 -31 15 -6 27 -16 27
-24 0 -16 -59 -56 -72 -48 -4 3 -8 1 -8 -3 0 -8 -99 -63 -113 -63 -3 0 -57
-31 -121 -70 -64 -38 -121 -70 -126 -70 -6 0 -10 -5 -10 -12 0 -6 -3 -9 -6 -5
-4 3 -26 -7 -50 -23 -23 -17 -47 -30 -53 -30 -6 0 -11 -4 -11 -8 0 -4 -12 -13
-27 -20 -16 -6 -50 -25 -78 -42 -27 -16 -61 -35 -75 -42 -14 -7 -27 -16 -30
-20 -3 -4 -17 -12 -30 -17 -25 -11 -61 -32 -70 -41 -5 -5 -42 -25 -115 -63
-22 -12 -42 -24 -45 -27 -3 -3 -16 -11 -30 -18 -14 -6 -33 -17 -42 -24 -13 -9
-22 -9 -40 0 -32 16 -62 36 -68 44 -3 4 -17 12 -30 18 -14 5 -38 19 -55 30
-54 35 -80 49 -97 56 -10 3 -18 10 -18 15 0 5 -5 9 -11 9 -6 0 -50 23 -97 52
-47 28 -102 60 -121 70 -42 21 -74 41 -81 49 -3 3 -25 15 -50 28 -25 13 -64
36 -88 52 -24 16 -47 29 -53 29 -5 0 -9 4 -9 8 0 4 -12 13 -27 20 -16 6 -64
32 -108 57 -44 25 -94 52 -112 60 -17 8 -34 19 -38 25 -3 5 -15 10 -26 10 -40
0 -16 27 68 75 48 28 96 55 108 62 11 7 31 18 45 25 14 7 28 17 32 23 5 6 8 6
8 0 0 -6 3 -5 8 1 4 6 49 33 100 60 121 64 127 67 269 152 67 39 127 72 132
72 6 0 11 5 11 10 0 6 6 10 13 10 7 0 28 11 47 25 18 13 37 22 41 19 5 -3 9
-1 9 5 0 6 11 13 25 17 14 3 25 10 25 15 0 5 6 9 13 9 8 0 24 9 37 20 13 11
29 20 37 20 7 0 13 4 13 10 0 5 11 12 25 16 14 3 25 10 25 14 0 19 38 14 75
-10 22 -14 49 -31 60 -38z m-1138 -708 c29 -14 55 -30 58 -35 4 -5 14 -9 25
-9 10 0 20 -6 23 -14 3 -8 16 -16 29 -18 13 -2 22 -8 21 -14 -1 -5 8 -11 19
-11 11 -1 28 -9 37 -17 10 -9 21 -16 24 -16 4 0 26 -12 50 -27 56 -36 78 -50
102 -63 11 -6 34 -19 50 -30 17 -11 42 -25 57 -31 16 -6 25 -16 21 -22 -3 -5
-1 -7 4 -4 6 4 22 -3 37 -14 14 -11 26 -18 26 -14 0 3 13 -3 29 -14 16 -12 34
-21 40 -21 7 0 14 -7 17 -15 4 -8 10 -13 14 -10 5 3 15 -1 22 -9 8 -7 24 -17
36 -20 12 -4 22 -12 22 -17 0 -5 5 -9 11 -9 9 0 101 -53 177 -102 15 -10 32
-20 39 -24 9 -4 12 -163 13 -664 0 -362 -4 -661 -8 -664 -5 -3 -37 13 -72 36
-35 22 -73 44 -84 49 -22 9 -58 31 -66 39 -3 3 -26 16 -52 30 -27 13 -48 28
-48 32 0 5 -9 8 -20 8 -10 0 -23 6 -27 13 -4 8 -30 25 -58 38 -27 13 -56 30
-63 37 -7 6 -20 12 -28 12 -8 0 -14 4 -14 9 0 5 -10 13 -22 17 -12 3 -28 13
-36 20 -7 8 -20 14 -28 14 -8 0 -14 4 -14 10 0 5 -11 12 -25 16 -14 3 -29 12
-33 18 -4 7 -23 20 -42 30 -47 23 -94 50 -100 56 -3 3 -16 11 -30 18 -14 7
-38 21 -55 32 -16 11 -37 23 -45 27 -8 3 -33 18 -55 32 -22 14 -57 34 -77 44
-21 11 -38 24 -39 31 0 15 0 1276 0 1299 1 16 5 15 44 -8 23 -14 66 -37 94
-51z m2191 -598 l-3 -658 -40 -24 c-22 -13 -48 -28 -57 -34 -10 -6 -18 -8 -18
-5 0 3 -10 -3 -22 -15 -12 -11 -28 -20 -35 -20 -7 0 -13 -4 -13 -10 0 -5 -6
-10 -14 -10 -8 0 -21 -6 -28 -12 -15 -14 -85 -54 -135 -77 -18 -8 -33 -19 -33
-23 0 -4 -9 -8 -20 -8 -11 0 -20 -5 -20 -11 0 -5 -13 -15 -30 -20 -16 -6 -30
-15 -30 -20 0 -5 -7 -9 -16 -9 -9 0 -27 -9 -41 -20 -14 -11 -32 -20 -39 -20
-8 0 -14 -4 -14 -10 0 -5 -6 -10 -14 -10 -8 0 -21 -6 -28 -13 -7 -7 -20 -16
-28 -20 -8 -4 -37 -20 -65 -37 -27 -17 -61 -36 -75 -43 -14 -6 -31 -17 -38
-24 -7 -7 -20 -13 -27 -13 -7 0 -20 -6 -27 -12 -7 -7 -34 -23 -60 -36 -26 -12
-48 -27 -50 -33 -2 -5 -11 -11 -20 -12 -8 -2 -31 -15 -51 -30 -29 -22 -36 -24
-41 -11 -10 27 -7 1304 4 1324 5 10 21 21 35 24 14 4 25 11 25 16 0 6 6 10 14
10 8 0 21 6 28 13 7 6 35 23 61 37 90 47 102 53 107 59 9 11 90 52 90 46 0 -4
7 1 16 9 8 9 22 16 30 16 8 0 14 4 14 8 0 4 25 21 56 37 30 17 63 35 72 40 9
6 35 22 57 35 72 44 79 48 133 76 28 15 52 31 52 36 0 4 8 8 19 8 10 0 24 7
31 15 7 8 20 15 30 15 10 0 20 7 24 15 3 8 14 15 25 15 11 0 24 6 28 14 4 8
20 17 36 20 15 2 40 14 56 25 16 12 33 21 38 21 4 0 14 10 21 21 9 13 17 18
23 12 5 -5 8 -274 7 -667z"/>
<path d="M1535 6049 c-75 -43 -87 -99 -30 -137 20 -13 56 -24 83 -26 48 -4
141 -51 142 -71 0 -6 -13 -19 -30 -28 -16 -10 -30 -15 -30 -11 0 4 -6 -1 -14
-11 -9 -13 -25 -18 -51 -17 -21 1 -44 -3 -52 -9 -7 -7 -13 -8 -13 -5 0 14 -59
-28 -68 -49 -12 -27 -3 -44 44 -80 21 -16 34 -22 29 -14 -8 12 -6 12 8 0 37
-30 144 10 173 66 12 23 28 37 44 40 13 2 27 7 30 12 3 4 18 15 35 23 27 15
31 14 67 -8 21 -13 44 -24 51 -24 18 0 43 -28 52 -58 15 -49 122 -73 196 -44
32 13 59 48 59 77 0 21 -34 58 -44 48 -3 -4 -6 -2 -6 4 0 11 -7 13 -60 17 -49
4 -79 15 -122 44 -30 19 -36 28 -27 38 6 8 16 14 21 14 6 0 23 10 40 21 16 12
48 23 71 25 125 9 169 87 86 152 -53 41 -180 15 -204 -42 -9 -21 -35 -44 -81
-72 l-68 -41 -57 36 c-31 20 -68 53 -81 73 -12 21 -27 38 -31 38 -5 0 -14 6
-22 13 -16 17 -113 21 -140 6z"/>
<path d="M1189 5223 c-19 -5 -49 -78 -45 -108 2 -11 9 -33 16 -50 7 -16 14
-32 15 -35 0 -3 10 -19 21 -37 17 -26 20 -48 19 -125 l-1 -93 -59 -6 c-67 -8
-89 -2 -127 34 -24 22 -60 32 -105 28 -6 -1 -15 -11 -19 -23 -4 -13 -11 -26
-15 -29 -12 -7 -19 -70 -8 -63 5 3 9 -4 9 -16 0 -23 32 -90 58 -121 67 -79
163 -81 178 -3 7 37 16 42 93 43 45 1 57 -2 77 -24 13 -14 24 -30 24 -35 0 -5
10 -16 22 -24 12 -9 19 -16 15 -16 -5 0 6 -15 22 -32 17 -18 31 -39 32 -45 1
-7 2 -16 3 -20 1 -5 6 -24 10 -43 12 -51 31 -83 70 -121 55 -54 65 -60 96 -61
56 -2 85 57 68 138 -6 27 -16 56 -24 65 -8 8 -14 20 -14 26 0 16 -87 93 -105
93 -8 0 -17 -1 -20 -2 -6 -4 -85 74 -85 83 0 4 -13 22 -30 40 -48 54 -55 77
-52 177 3 69 7 92 17 92 7 0 23 12 35 28 18 22 21 35 16 75 -9 61 -40 123 -86
165 -48 46 -77 57 -121 45z"/>
<path d="M2687 5084 c-33 -18 -73 -67 -107 -131 -19 -36 -37 -53 -75 -73 -28
-14 -69 -38 -93 -54 -40 -27 -43 -28 -61 -12 -23 21 -67 27 -101 14 -31 -11
-101 -78 -94 -90 3 -4 1 -8 -3 -8 -17 0 -50 -85 -52 -135 -2 -44 1 -54 28 -79
26 -25 35 -28 66 -22 21 4 44 13 52 19 40 34 75 76 93 115 19 41 66 78 153
122 15 7 35 21 45 30 16 16 19 16 45 -6 16 -13 35 -24 43 -24 51 0 142 75 171
140 23 50 25 60 26 108 1 83 -64 124 -136 86z"/>
<path d="M14584 6386 c-52 -23 -100 -73 -124 -128 -19 -44 -22 -65 -18 -142 3
-77 8 -99 33 -145 34 -62 79 -95 150 -111 110 -25 209 17 259 109 30 55 28 64
-16 75 -23 5 -28 2 -38 -29 -23 -71 -114 -116 -191 -95 -66 18 -106 64 -125
141 -38 155 38 279 169 279 63 0 102 -22 127 -70 19 -37 21 -38 51 -30 18 5
33 11 35 12 8 9 -46 85 -79 112 -35 28 -46 31 -120 34 -54 1 -93 -3 -113 -12z"/>
<path d="M7215 6158 c-49 -128 -94 -248 -102 -265 l-13 -33 39 0 c33 0 40 4
45 25 4 14 16 50 27 80 l20 55 114 0 113 0 18 -47 c43 -118 39 -113 83 -113
l40 0 -107 265 -107 265 -41 0 -41 0 -88 -232z m215 -70 c0 -5 -38 -8 -85 -8
-47 0 -85 3 -85 8 0 4 18 59 40 122 22 63 40 117 40 120 1 7 89 -233 90 -242z"/>
<path d="M10810 6125 l0 -265 121 0 c149 0 200 12 238 55 58 67 46 163 -27
212 -32 21 -32 22 -13 33 47 25 64 105 36 161 -31 58 -64 69 -217 69 l-138 0
0 -265z m274 184 c20 -16 26 -29 26 -58 0 -62 -24 -75 -141 -79 l-99 -4 0 81
0 81 94 0 c79 0 97 -3 120 -21z m27 -237 c33 -36 36 -60 14 -102 -20 -38 -68
-52 -170 -48 l-80 3 -3 79 c-2 44 0 86 3 94 4 12 24 14 106 10 99 -4 102 -4
130 -36z"/>
<path d="M18360 6124 l0 -266 143 4 c153 4 178 11 229 65 81 85 90 282 18 382
-50 69 -87 81 -250 81 l-140 0 0 -266z m290 188 c54 -29 75 -81 75 -182 0 -65
-5 -94 -20 -124 -34 -67 -61 -80 -175 -84 l-100 -4 0 206 0 206 93 0 c71 0
100 -4 127 -18z"/>
<path d="M7381 4101 c-11 -7 -10 -11 7 -20 15 -8 21 -7 25 3 9 24 -7 32 -32
17z"/>
<path d="M17265 4103 c-47 -11 -45 43 -45 -1425 l0 -1388 23 -15 c21 -13 158
-15 1218 -11 657 2 1204 5 1217 7 13 2 25 13 28 24 2 11 3 645 2 1410 l-3
1390 -22 -3 c-12 -2 -24 2 -28 7 -6 11 -2347 14 -2390 4z m2357 -59 c10 -3 16
-9 13 -14 -3 -5 -5 -614 -5 -1354 0 -1314 0 -1345 -19 -1355 -13 -7 -403 -11
-1162 -11 -1044 0 -1144 2 -1161 17 -15 13 -16 19 -5 31 7 9 8 17 2 19 -7 2
-8 444 -5 1314 3 721 2 1313 -2 1316 -17 9 -7 32 17 40 28 9 2298 7 2327 -3z"/>
<path d="M17730 3500 c0 -163 1 -170 20 -170 19 0 20 7 20 170 0 163 -1 170
-20 170 -19 0 -20 -7 -20 -170z"/>
<path d="M18140 3614 c0 -50 -2 -55 -17 -49 -67 29 -124 9 -150 -53 -32 -76 1
-163 68 -183 33 -10 42 -9 66 6 18 12 28 14 31 7 2 -7 12 -12 23 -12 18 0 19
9 19 170 0 163 -1 170 -20 170 -18 0 -20 -7 -20 -56z m-30 -89 c18 -20 24 -37
24 -75 0 -58 -23 -90 -64 -90 -43 0 -65 33 -65 97 0 45 4 58 24 74 31 26 53
24 81 -6z"/>
<path d="M19208 3649 c-11 -6 -18 -22 -18 -39 0 -20 -5 -30 -15 -30 -8 0 -15
-7 -15 -15 0 -8 7 -15 15 -15 12 0 15 -17 15 -95 0 -83 3 -98 21 -116 23 -23
62 -22 67 1 1 8 -8 20 -20 25 -21 9 -23 16 -23 95 0 81 1 85 23 88 30 5 29 32
-2 32 -22 0 -25 5 -28 39 -3 35 -5 38 -20 30z"/>
<path d="M18270 3552 c-59 -60 -45 -183 25 -216 41 -20 56 -20 101 -1 79 33
87 177 12 229 -12 9 -42 16 -66 16 -34 0 -49 -6 -72 -28z m109 -12 c43 -23 52
-120 15 -161 -27 -29 -80 -25 -101 8 -28 42 -22 111 11 140 29 25 47 28 75 13z"/>
<path d="M18650 3455 c0 -118 1 -125 20 -125 18 0 20 7 20 88 0 48 4 92 8 98
15 23 50 34 75 25 30 -12 37 -35 37 -133 0 -72 2 -78 21 -78 20 0 21 4 17 106
-3 97 -5 107 -27 125 -28 23 -78 25 -109 3 -20 -14 -22 -14 -22 0 0 9 -9 16
-20 16 -19 0 -20 -7 -20 -125z"/>
<path d="M18940 3552 c-59 -60 -45 -183 25 -216 41 -20 56 -20 101 -1 79 33
87 177 12 229 -12 9 -42 16 -66 16 -34 0 -49 -6 -72 -28z m109 -12 c43 -23 52
-120 15 -161 -27 -29 -80 -25 -101 8 -28 42 -22 111 11 140 29 25 47 28 75 13z"/>
<path d="M17950 2925 c0 -168 1 -175 20 -175 18 0 20 7 20 54 0 35 5 58 15 66
12 10 21 1 57 -54 32 -51 47 -66 66 -66 l24 0 -23 38 c-12 20 -35 55 -50 77
l-27 40 46 48 46 47 -29 0 c-21 0 -42 -13 -77 -47 l-48 -47 0 97 c0 90 -1 97
-20 97 -19 0 -20 -7 -20 -175z"/>
<path d="M18280 3003 c-8 -3 -23 -12 -32 -21 -16 -14 -18 -13 -18 1 0 10 -8
17 -20 17 -19 0 -20 -7 -20 -125 0 -116 1 -125 19 -125 17 0 19 10 23 96 3
103 14 124 64 124 44 0 54 -24 54 -126 0 -87 1 -94 20 -94 19 0 20 7 20 104 0
84 -3 108 -17 125 -19 22 -67 34 -93 24z"/>
<path d="M18513 2995 c-41 -18 -63 -61 -63 -126 0 -45 4 -55 34 -85 26 -26 42
-34 70 -34 80 0 116 42 116 133 0 62 -18 93 -66 113 -41 17 -50 17 -91 -1z
m97 -45 c31 -31 28 -113 -5 -145 -49 -50 -105 -19 -112 61 -4 40 -1 54 17 77
26 33 71 36 100 7z"/>
<path d="M18706 2978 c4 -13 20 -65 35 -116 33 -109 35 -112 58 -112 15 0 23
17 41 83 12 45 25 86 29 90 4 4 13 -16 20 -46 25 -115 31 -127 55 -127 20 0
26 13 59 119 20 66 37 122 37 126 0 4 -10 5 -22 3 -18 -2 -25 -18 -46 -91 -14
-51 -28 -83 -32 -75 -4 7 -15 48 -25 91 -17 68 -22 77 -42 77 -18 0 -24 -8
-33 -42 -6 -24 -19 -68 -27 -98 l-16 -54 -18 69 c-11 39 -22 82 -25 98 -5 20
-12 27 -31 27 -21 0 -23 -3 -17 -22z"/>
<path d="M18310 2350 c0 -163 1 -170 20 -170 18 0 20 7 20 81 0 90 9 115 47
130 19 7 32 6 49 -6 22 -14 24 -22 24 -110 0 -88 1 -95 20 -95 19 0 20 7 20
105 0 94 -2 106 -22 125 -26 24 -84 27 -116 4 l-22 -15 0 60 c0 54 -2 61 -20
61 -19 0 -20 -7 -20 -170z"/>
<path d="M18202 2498 c-7 -7 -12 -25 -12 -40 0 -18 -5 -28 -15 -28 -8 0 -15
-6 -15 -14 0 -8 7 -16 15 -20 12 -4 15 -25 15 -100 0 -103 10 -126 55 -126 40
0 41 29 3 43 -15 5 -18 20 -18 97 0 83 1 90 20 90 11 0 20 7 20 15 0 8 -9 15
-20 15 -17 0 -20 7 -20 40 0 41 -7 49 -28 28z"/>
<path d="M18604 2396 c-31 -31 -34 -39 -34 -94 0 -71 22 -106 79 -123 49 -14
105 2 128 38 14 21 14 26 2 33 -9 6 -22 1 -39 -15 -36 -34 -82 -33 -109 1 -38
48 -30 54 74 54 104 0 102 -1 85 62 -15 51 -52 78 -107 78 -38 0 -50 -5 -79
-34z m134 -23 c26 -35 15 -43 -58 -43 -79 0 -90 13 -43 50 32 25 79 21 101 -7z"/>
<path d="M18130 1770 c0 -163 1 -170 20 -170 19 0 20 7 20 170 0 163 -1 170
-20 170 -19 0 -20 -7 -20 -170z"/>
<path d="M18640 1920 c0 -13 7 -20 20 -20 13 0 20 7 20 20 0 13 -7 20 -20 20
-13 0 -20 -7 -20 -20z"/>
<path d="M18528 1919 c-11 -6 -18 -22 -18 -39 0 -20 -5 -30 -15 -30 -8 0 -15
-7 -15 -15 0 -8 7 -15 15 -15 12 0 15 -16 15 -84 0 -113 9 -136 55 -136 40 0
47 20 13 35 -21 9 -23 16 -23 95 0 81 1 85 23 88 30 5 29 32 -2 32 -22 0 -25
5 -28 39 -3 35 -5 38 -20 30z"/>
<path d="M17632 1834 c-15 -10 -22 -25 -22 -49 0 -41 21 -57 98 -80 37 -11 52
-21 52 -33 0 -47 -67 -57 -104 -17 -13 14 -31 25 -40 25 -20 0 -20 -4 -1 -39
17 -34 32 -41 94 -41 59 0 91 26 91 74 0 41 -14 53 -87 75 -40 12 -59 23 -61
35 -8 38 68 51 90 16 15 -23 48 -27 48 -5 0 8 -9 24 -20 35 -25 25 -105 27
-138 4z"/>
<path d="M17887 1829 c-32 -24 -50 -86 -41 -136 17 -90 118 -125 186 -64 31
28 33 33 33 96 0 63 -2 68 -33 96 -41 36 -105 40 -145 8z m113 -27 c27 -22 37
-95 18 -132 -32 -59 -109 -49 -127 17 -26 95 43 168 109 115z"/>
<path d="M18240 1741 c0 -102 2 -111 22 -125 29 -20 92 -21 108 -1 7 8 16 15
21 15 5 0 9 -7 9 -15 0 -8 9 -15 20 -15 19 0 20 7 20 125 0 118 -1 125 -20
125 -18 0 -20 -7 -21 -72 -1 -94 -9 -119 -41 -137 -21 -12 -31 -13 -52 -3 -25
11 -26 14 -26 112 0 93 -1 100 -20 100 -19 0 -20 -7 -20 -109z"/>
<path d="M18640 1725 c0 -118 1 -125 20 -125 19 0 20 7 20 125 0 118 -1 125
-20 125 -19 0 -20 -7 -20 -125z"/>
<path d="M18777 1829 c-32 -24 -50 -86 -41 -136 17 -90 118 -125 186 -64 31
28 33 33 33 96 0 63 -2 68 -33 96 -41 36 -105 40 -145 8z m113 -27 c27 -22 37
-95 18 -132 -32 -59 -109 -49 -127 17 -26 95 43 168 109 115z"/>
<path d="M19020 1725 c0 -118 1 -125 20 -125 19 0 20 7 20 90 0 77 3 93 20
110 24 24 49 25 76 6 16 -12 20 -29 22 -110 4 -88 6 -96 24 -96 19 0 20 6 16
104 -2 85 -6 108 -22 125 -24 26 -91 29 -118 4 -17 -15 -18 -15 -18 0 0 10 -8
17 -20 17 -19 0 -20 -7 -20 -125z"/>
<path d="M19300 1620 c0 -13 7 -20 20 -20 13 0 20 7 20 20 0 13 -7 20 -20 20
-13 0 -20 -7 -20 -20z"/>
<path d="M11055 4067 c-11 -7 -30 -20 -44 -29 -13 -10 -27 -15 -32 -12 -5 3
-9 1 -9 -5 0 -5 -10 -13 -22 -16 -13 -4 -33 -17 -45 -28 -13 -11 -23 -17 -23
-13 0 5 -7 2 -16 -5 -9 -7 -25 -18 -35 -24 -11 -5 -74 -42 -142 -81 -67 -39
-138 -80 -157 -90 -19 -11 -37 -21 -40 -24 -9 -9 -105 -61 -132 -71 -16 -6
-28 -15 -28 -20 0 -5 -4 -9 -10 -9 -8 0 -139 -73 -180 -100 -8 -6 -27 -15 -42
-21 -16 -6 -28 -15 -28 -20 0 -5 -5 -9 -11 -9 -12 0 -156 -85 -182 -108 -16
-14 -17 -58 -17 -697 l1 -683 24 -26 c13 -14 27 -26 31 -26 3 0 51 -27 106
-60 54 -33 103 -60 107 -60 4 0 18 -9 31 -20 13 -11 29 -20 37 -20 7 0 13 -4
13 -9 0 -5 12 -14 28 -20 28 -11 35 -15 109 -63 23 -16 44 -28 47 -28 3 0 61
-34 130 -75 69 -41 130 -75 136 -75 5 0 10 -3 10 -8 0 -4 21 -18 48 -32 26
-13 49 -28 52 -32 3 -4 17 -12 30 -18 14 -6 34 -16 45 -23 143 -87 217 -127
234 -127 11 0 55 20 97 45 41 25 77 45 79 45 2 0 59 33 128 74 69 41 134 77
146 81 12 3 21 11 21 16 0 5 5 9 11 9 6 0 25 10 42 22 18 13 34 22 37 22 3 -1
21 9 40 21 19 12 45 25 58 29 12 4 22 11 22 16 0 4 11 11 25 14 14 4 25 11 25
16 0 6 8 10 18 10 11 0 27 9 37 20 10 11 22 20 26 20 5 0 68 34 141 76 73 42
153 88 178 102 25 14 57 34 72 45 27 20 44 57 26 57 -7 0 -6 5 1 13 6 8 9 16
6 19 -3 2 -5 299 -5 660 l-1 656 -42 28 c-23 16 -49 32 -57 37 -8 4 -37 21
-65 37 -27 17 -63 37 -80 44 -16 8 -45 26 -64 40 -19 14 -41 26 -48 26 -7 0
-13 4 -13 9 0 5 -12 14 -27 20 -16 6 -41 20 -58 31 -16 11 -39 24 -50 30 -11
5 -27 14 -35 19 -8 6 -51 31 -95 56 -44 25 -87 50 -95 56 -8 5 -23 12 -32 15
-10 4 -18 10 -18 14 0 5 -9 12 -21 15 -12 4 -36 17 -54 29 -44 29 -95 56 -99
53 -2 -1 -12 5 -22 14 -11 9 -39 27 -64 40 -25 13 -47 27 -50 30 -12 13 -119
69 -131 68 -8 0 -23 -6 -34 -12z m92 -64 c26 -14 66 -37 88 -51 22 -14 41 -24
43 -23 1 1 14 -7 29 -19 14 -11 31 -20 38 -20 7 0 16 -7 19 -16 4 -9 9 -14 13
-11 3 4 11 3 17 -2 6 -5 34 -21 61 -36 28 -16 52 -31 55 -34 3 -4 16 -12 30
-19 14 -7 41 -22 60 -33 19 -12 53 -31 75 -42 22 -12 42 -25 45 -28 5 -6 115
-70 140 -82 8 -4 29 -16 45 -27 17 -11 39 -24 50 -30 11 -6 34 -19 50 -30 17
-11 37 -23 45 -27 8 -3 33 -18 55 -32 22 -14 46 -26 54 -27 8 -2 17 -7 20 -13
4 -5 16 -14 28 -18 13 -5 19 -13 15 -19 -7 -10 -179 -114 -189 -114 -3 0 -39
-20 -80 -45 -40 -25 -77 -45 -80 -45 -4 0 -14 -6 -22 -14 -9 -7 -36 -25 -61
-38 -25 -14 -74 -42 -108 -62 -35 -20 -65 -36 -67 -36 -2 0 -27 -16 -56 -35
-30 -19 -59 -35 -65 -35 -7 0 -14 -3 -16 -7 -1 -5 -24 -18 -49 -31 -26 -12
-52 -29 -59 -37 -7 -8 -16 -13 -20 -10 -4 3 -13 -2 -20 -10 -7 -8 -18 -15 -24
-15 -6 0 -35 -16 -65 -36 -29 -20 -67 -42 -84 -51 -18 -8 -43 -20 -56 -28 -22
-12 -27 -11 -49 6 -14 10 -29 19 -34 19 -4 0 -27 12 -51 27 -52 34 -113 69
-152 89 -16 8 -43 24 -60 34 -16 11 -38 23 -47 26 -10 4 -18 9 -18 13 0 6 -65
43 -80 46 -8 1 -64 39 -78 52 -7 7 -18 13 -24 13 -5 0 -29 13 -52 28 -22 15
-48 31 -56 35 -8 4 -28 16 -45 27 -16 10 -54 31 -82 45 -29 15 -53 31 -53 36
0 6 -4 8 -9 4 -5 -3 -13 0 -17 6 -3 6 -21 17 -38 25 -17 8 -40 20 -51 27 -66
41 -101 61 -106 60 -3 -1 -18 9 -35 22 l-29 24 45 21 c25 11 59 30 75 40 17
11 39 24 50 30 11 6 34 19 50 30 17 11 41 25 55 30 13 6 27 16 31 21 3 6 12
11 20 13 8 1 32 13 54 27 22 14 61 37 86 51 83 47 94 53 99 59 3 3 17 9 33 13
15 3 27 11 27 16 0 6 6 10 14 10 7 0 19 7 26 15 7 8 21 15 31 15 11 0 19 3 19
8 0 4 48 34 108 67 59 32 110 64 114 70 4 5 11 10 15 10 7 0 78 39 168 91 30
18 40 16 92 -13z m-1187 -692 c0 -5 9 -13 21 -16 11 -4 40 -19 62 -34 23 -16
58 -37 77 -47 19 -10 37 -22 40 -26 3 -4 17 -12 30 -17 14 -6 34 -17 45 -23
49 -32 100 -62 105 -63 3 0 50 -28 106 -63 56 -34 104 -62 107 -62 6 0 111
-62 167 -98 14 -9 27 -17 30 -17 3 0 16 -8 30 -16 14 -9 54 -34 90 -55 36 -21
75 -45 85 -52 11 -7 34 -19 51 -27 17 -7 35 -20 40 -27 6 -8 10 -261 9 -663
l-1 -650 -24 4 c-14 1 -44 16 -68 32 -24 16 -50 29 -58 29 -7 0 -14 7 -14 16
0 8 -4 13 -9 10 -5 -3 -20 3 -34 14 -14 11 -30 20 -35 20 -5 0 -15 7 -22 15
-7 8 -16 13 -20 10 -4 -2 -18 4 -30 15 -13 11 -29 20 -37 20 -7 0 -13 4 -13
10 0 5 -11 12 -24 16 -14 3 -27 12 -30 21 -3 8 -10 12 -14 9 -5 -3 -18 4 -30
14 -12 11 -26 20 -31 20 -5 0 -36 17 -68 39 -32 21 -68 41 -80 45 -13 4 -29
13 -36 19 -12 12 -40 28 -107 64 -19 10 -39 24 -43 31 -4 6 -17 12 -27 12 -10
0 -22 5 -25 10 -4 6 -29 23 -57 38 -53 28 -56 30 -125 75 -24 15 -47 27 -52
27 -5 0 -11 12 -14 28 -3 15 -5 314 -5 665 0 617 1 637 19 637 11 0 19 -4 19
-9z m2299 -8 c-12 -14 -12 -15 -1 -9 11 7 12 4 3 -12 -7 -14 -11 -217 -11
-653 0 -347 -1 -632 -2 -633 -2 -1 -12 -7 -23 -14 -11 -7 -32 -17 -47 -23 -16
-6 -28 -14 -28 -18 0 -4 -19 -17 -42 -30 -24 -12 -59 -31 -78 -43 -19 -11 -55
-31 -80 -45 -25 -13 -58 -33 -75 -44 -16 -11 -42 -25 -57 -31 -16 -7 -28 -16
-28 -20 0 -4 -6 -8 -14 -8 -8 0 -22 -7 -30 -16 -9 -9 -22 -17 -29 -18 -7 -1
-28 -12 -47 -26 -18 -13 -30 -17 -26 -9 4 7 1 6 -7 -3 -8 -10 -17 -18 -20 -18
-7 0 -130 -71 -137 -79 -3 -3 -34 -21 -70 -40 -36 -19 -98 -53 -137 -77 -40
-24 -77 -44 -82 -44 -5 0 -14 -6 -20 -14 -6 -8 -22 -16 -35 -18 l-22 -5 0 621
c1 342 -1 634 -4 651 -7 35 10 55 72 85 24 11 57 29 73 40 17 11 44 26 60 34
17 8 53 29 80 45 28 17 59 35 70 41 11 6 34 19 50 30 17 10 41 25 55 33 83 46
129 73 162 94 21 12 42 23 47 23 5 0 16 6 23 13 18 16 46 34 78 49 14 7 27 15
30 18 3 3 28 17 55 30 28 14 52 28 55 31 3 4 15 9 28 13 12 4 22 12 22 17 0 5
6 9 14 9 8 0 21 6 28 13 7 6 35 23 61 37 26 13 47 28 47 32 0 5 12 8 26 8 24
0 25 -2 13 -17z"/>
<path d="M10737 3578 c-20 -11 -42 -28 -47 -37 -22 -42 25 -91 94 -98 46 -4
167 -61 174 -81 2 -7 -5 -16 -17 -19 -12 -3 -21 -8 -21 -12 0 -5 -54 -33 -72
-37 -5 -1 -10 -3 -13 -4 -10 -5 -26 -8 -55 -9 -39 -1 -102 -56 -98 -85 3 -21
90 -72 126 -73 60 -3 152 49 152 84 0 7 11 19 25 25 14 6 25 15 25 20 0 4 6 8
14 8 7 0 19 7 26 15 19 23 46 18 105 -20 36 -23 59 -46 69 -69 11 -27 23 -37
65 -51 61 -20 112 -14 164 20 74 50 36 115 -76 128 -54 7 -157 61 -157 83 0 7
11 16 25 20 14 3 25 10 25 14 0 5 17 14 38 21 47 17 45 16 87 18 25 1 46 11
72 35 34 31 36 36 25 60 -12 27 -62 55 -116 63 -63 10 -156 -41 -156 -86 0 -5
-27 -26 -61 -46 l-61 -36 -39 18 c-21 9 -39 20 -39 24 0 4 -11 9 -23 13 -15 3
-30 20 -42 45 -13 30 -28 44 -56 55 -53 21 -116 19 -162 -6z"/>
<path d="M10146 2579 c-34 -40 -34 -90 -1 -166 28 -63 90 -126 142 -143 26 -9
38 -8 69 8 l38 19 63 -38 c35 -22 67 -39 71 -39 17 -1 51 -40 72 -81 80 -159
249 -186 250 -39 0 111 -113 252 -198 245 -18 -2 -41 -9 -50 -17 -19 -16 -39
-18 -50 -3 -8 12 -39 31 -70 45 -64 28 -118 83 -126 130 -3 15 -47 61 -81 84
-53 36 -96 35 -129 -5z"/>
<path d="M11686 2769 c-66 -19 -139 -133 -140 -218 -1 -49 2 -56 33 -81 l34
-29 -2 -92 c-2 -89 -3 -93 -38 -138 -52 -65 -115 -131 -126 -131 -31 0 -97
-47 -124 -88 -78 -116 -62 -234 32 -234 77 0 157 92 184 211 8 35 53 105 87
136 6 6 20 24 32 41 22 33 28 34 115 19 40 -6 47 -11 47 -30 0 -64 69 -86 138
-43 49 30 68 52 97 113 43 90 35 148 -22 179 -23 12 -33 12 -68 0 -22 -8 -44
-20 -50 -27 -24 -31 -58 -45 -94 -41 -87 12 -81 4 -81 105 0 79 4 98 27 143
42 82 43 84 43 123 0 43 -5 52 -40 76 -27 19 -40 20 -84 6z"/>
<path d="M14729 4054 c-13 -7 -34 -19 -46 -25 -13 -7 -23 -16 -23 -21 0 -4 -9
-8 -20 -8 -10 0 -23 -6 -27 -13 -4 -7 -30 -24 -58 -37 -27 -14 -58 -31 -67
-39 -10 -8 -18 -11 -18 -7 0 4 -10 -2 -22 -13 -11 -11 -25 -18 -30 -15 -4 3
-8 1 -8 -3 0 -5 -25 -22 -56 -38 -30 -17 -66 -36 -80 -43 -13 -7 -24 -16 -24
-20 0 -4 -10 -8 -22 -9 -12 -1 -25 -9 -30 -17 -4 -8 -23 -18 -40 -21 -32 -7
-68 -24 -78 -36 -3 -3 -32 -21 -65 -39 -33 -18 -71 -41 -84 -51 -13 -11 -32
-19 -42 -19 -10 0 -20 -4 -23 -9 -7 -11 -174 -112 -242 -146 -17 -9 -41 -25
-53 -36 l-21 -20 0 -688 c0 -684 0 -687 21 -710 11 -12 31 -27 42 -32 12 -5
36 -18 52 -28 17 -11 48 -29 70 -41 22 -12 42 -26 45 -30 3 -4 28 -19 55 -34
28 -15 64 -35 80 -46 17 -10 50 -29 75 -42 25 -13 47 -26 50 -29 8 -9 130 -79
139 -79 4 0 16 -9 26 -20 10 -11 21 -17 25 -15 4 3 13 -2 20 -10 7 -8 19 -15
26 -15 8 0 14 -4 14 -8 0 -5 21 -19 48 -32 26 -13 49 -26 52 -29 3 -4 16 -12
30 -19 31 -15 63 -35 70 -43 3 -4 15 -9 28 -13 12 -4 22 -12 22 -17 0 -6 5 -7
10 -4 6 3 10 1 10 -4 0 -6 4 -11 10 -11 12 0 113 -61 121 -73 3 -5 10 -9 15
-9 5 0 19 -5 32 -11 19 -9 34 -5 80 18 31 16 59 31 62 34 3 4 16 12 30 18 14
7 48 26 75 42 28 17 59 35 70 41 11 6 34 19 50 30 17 11 44 27 60 35 17 9 53
29 80 45 28 17 62 35 78 41 15 6 27 14 27 19 0 4 8 10 18 14 16 5 24 9 67 35
11 6 28 14 38 17 9 4 17 10 17 14 0 5 12 13 28 19 35 15 71 36 85 50 6 6 17
11 24 11 7 0 21 7 31 16 23 21 132 84 132 77 0 -3 8 1 18 9 16 15 93 60 139
82 l23 11 0 711 0 712 -53 36 c-29 20 -55 36 -59 36 -4 0 -26 13 -50 28 -24
16 -59 37 -78 48 -19 10 -43 26 -54 34 -10 8 -20 14 -22 13 -5 -3 -54 25 -132
76 -82 53 -136 81 -157 81 -8 0 -15 4 -15 9 0 5 -13 12 -30 16 -16 4 -30 10
-30 14 0 4 -10 13 -22 20 -13 6 -36 20 -53 31 -16 11 -43 26 -60 35 -64 32
-119 66 -126 76 -3 6 -14 11 -23 13 -10 1 -21 7 -24 12 -4 5 -25 18 -47 29
-22 10 -60 32 -84 48 -52 34 -89 40 -122 21z m159 -103 c29 -17 57 -31 61 -31
5 0 12 -7 15 -16 3 -8 10 -13 15 -10 5 3 20 -3 34 -14 14 -11 28 -20 31 -20 3
0 61 -34 129 -75 69 -41 129 -75 135 -75 5 0 15 -7 22 -15 7 -8 16 -13 20 -10
5 3 11 1 15 -5 4 -6 27 -22 53 -35 57 -30 93 -52 149 -88 24 -15 45 -27 48
-27 7 0 229 -132 235 -140 3 -3 13 -9 23 -13 9 -3 17 -11 17 -16 0 -11 -214
-140 -408 -246 -20 -11 -55 -32 -77 -46 -22 -13 -51 -30 -65 -37 -14 -7 -47
-26 -75 -42 -27 -17 -62 -35 -77 -42 -16 -7 -28 -16 -28 -20 0 -4 -6 -8 -14
-8 -8 0 -21 -6 -28 -12 -18 -17 -48 -36 -74 -47 -11 -5 -50 -27 -86 -49 -35
-22 -74 -43 -86 -46 -12 -4 -22 -12 -22 -17 0 -5 -5 -9 -11 -9 -6 0 -24 -9
-40 -21 -29 -21 -76 -18 -63 3 4 6 3 8 -3 5 -5 -4 -25 5 -43 18 -19 14 -38 25
-42 25 -5 0 -27 12 -51 27 -23 15 -57 36 -76 46 -19 10 -52 31 -75 45 -64 42
-75 48 -176 104 -25 14 -62 35 -82 47 -20 12 -39 21 -40 19 -2 -2 -14 7 -28
20 -13 12 -27 22 -31 22 -4 0 -37 18 -73 40 -36 22 -68 40 -70 40 -2 0 -28 16
-57 35 -30 19 -59 35 -65 35 -7 0 -14 4 -16 9 -3 9 -75 53 -124 76 -32 15 -53
45 -31 45 7 0 35 15 62 32 28 17 73 44 100 58 105 56 128 69 144 82 9 8 36 24
61 37 25 12 74 40 110 62 36 21 90 51 120 66 30 15 62 32 70 39 8 6 47 29 85
50 39 21 76 44 83 51 8 7 18 11 23 8 5 -4 9 -1 9 5 0 6 5 8 10 5 6 -3 10 -2
10 3 0 4 19 18 43 31 23 12 56 31 72 41 17 11 50 30 75 43 44 24 46 24 75 7
17 -10 54 -32 83 -49z m-1246 -643 c10 -10 25 -18 33 -18 8 0 15 -4 15 -10 0
-5 11 -12 25 -16 14 -3 25 -10 25 -14 0 -4 12 -13 28 -19 15 -6 36 -16 47 -23
73 -47 105 -65 138 -83 21 -11 46 -27 55 -36 9 -8 20 -15 23 -15 4 1 26 -11
49 -26 23 -16 46 -28 51 -28 5 0 9 -5 9 -11 0 -5 4 -8 8 -5 5 3 24 -5 43 -17
19 -12 41 -26 51 -32 9 -5 38 -21 65 -35 26 -14 51 -29 55 -34 8 -11 83 -55
156 -91 28 -15 52 -31 52 -36 0 -6 4 -8 9 -5 5 3 20 -3 34 -14 14 -11 30 -20
36 -20 6 0 11 -4 11 -10 0 -5 11 -12 25 -16 14 -3 31 -16 38 -28 9 -16 12
-184 12 -665 1 -702 4 -676 -55 -632 -16 11 -36 21 -45 21 -8 0 -15 5 -15 10
0 6 -10 15 -22 21 -34 15 -68 35 -81 48 -6 6 -19 11 -29 11 -10 0 -18 4 -18 9
0 5 -12 14 -27 20 -16 6 -41 20 -58 31 -16 11 -37 23 -45 27 -8 3 -19 12 -23
20 -4 7 -15 13 -24 13 -8 0 -35 14 -60 30 -24 17 -48 30 -52 30 -5 0 -14 7
-21 15 -7 8 -21 15 -31 15 -11 0 -19 3 -19 8 0 4 -21 19 -47 32 -27 14 -50 28
-53 32 -3 4 -26 18 -50 31 -99 53 -146 80 -161 93 -8 8 -23 14 -32 14 -9 0
-17 5 -17 10 0 6 -10 15 -22 20 -28 12 -57 31 -76 48 -7 6 -22 12 -33 12 -17
0 -24 16 -20 42 0 4 1 298 1 652 0 478 4 645 12 643 6 -1 20 -10 30 -19z
m2290 -654 l3 -655 -21 -20 c-12 -11 -28 -21 -37 -23 -8 -1 -22 -9 -31 -19
-10 -9 -24 -17 -32 -17 -8 0 -14 -3 -14 -8 0 -4 -24 -18 -52 -32 -29 -13 -55
-27 -58 -30 -9 -10 -45 -31 -72 -43 -16 -6 -28 -15 -28 -19 0 -4 -7 -8 -14 -8
-8 0 -35 -13 -59 -30 -25 -16 -48 -30 -52 -30 -4 0 -18 -9 -32 -20 -14 -11
-29 -17 -34 -14 -5 3 -9 1 -9 -4 0 -6 -24 -22 -52 -37 -29 -15 -55 -30 -58
-34 -3 -3 -27 -17 -55 -31 -27 -14 -52 -27 -55 -30 -9 -9 -44 -30 -67 -39 -11
-6 -24 -15 -28 -20 -3 -6 -15 -11 -25 -11 -10 0 -23 -6 -27 -12 -4 -7 -26 -22
-48 -33 -22 -10 -59 -31 -82 -46 -22 -15 -51 -30 -62 -34 -12 -3 -21 -10 -21
-14 0 -4 -6 -8 -12 -8 -10 0 -13 139 -13 663 0 364 3 660 7 658 4 -3 12 5 18
16 6 11 17 20 25 20 7 0 20 6 27 14 8 7 24 17 36 20 12 4 22 12 22 17 0 5 8 9
19 9 10 0 24 7 31 15 7 8 17 15 22 15 6 0 30 14 55 30 24 17 49 27 55 24 7 -4
8 -2 4 4 -4 7 -1 12 8 12 8 0 16 3 18 8 2 4 25 18 51 32 94 49 102 53 105 62
2 4 9 8 17 8 7 0 18 7 25 15 7 9 19 14 25 11 7 -2 25 7 40 20 15 13 31 22 35
19 4 -2 22 9 41 25 19 16 42 29 51 30 9 0 20 5 23 11 4 5 17 15 28 20 12 5 40
20 62 34 22 14 51 30 65 36 14 6 34 19 45 29 11 10 30 21 43 25 12 3 22 11 22
16 0 5 9 9 20 9 11 0 23 7 26 15 4 8 10 13 14 10 4 -3 13 2 20 10 7 8 19 15
26 15 11 0 14 -110 16 -656z"/>
<path d="M14908 3590 c-68 -21 -104 -66 -99 -122 2 -22 -3 -30 -26 -40 -15 -7
-41 -22 -58 -34 -49 -35 -115 -55 -155 -46 -31 7 -71 2 -120 -16 -8 -3 -18 -4
-22 -4 -5 1 -8 -2 -8 -7 0 -5 -9 -13 -21 -16 -11 -4 -28 -22 -37 -41 -15 -33
-15 -37 2 -69 11 -19 23 -32 27 -29 5 3 9 1 9 -4 0 -20 74 -44 139 -45 71 -1
156 29 167 58 4 8 10 13 14 10 11 -7 19 30 14 64 -4 25 0 31 26 42 16 8 30 17
30 21 0 5 6 8 14 8 8 0 21 6 28 13 21 20 88 36 155 36 117 0 188 40 199 112 6
39 -20 75 -71 101 -33 17 -163 22 -207 8z"/>
<path d="M13915 2772 c-51 -36 -73 -70 -95 -143 -19 -61 -19 -135 -2 -190 6
-19 13 -48 15 -65 3 -17 9 -39 15 -50 5 -10 19 -41 31 -67 33 -74 107 -180
167 -241 76 -76 149 -121 226 -142 59 -16 71 -16 110 -4 58 19 123 86 138 142
13 46 16 178 5 230 -8 43 -36 120 -48 136 -5 6 -7 12 -3 12 7 0 -43 102 -54
110 -4 3 -12 15 -19 27 -23 45 -113 144 -166 184 -87 66 -123 81 -205 86 -71
5 -77 3 -115 -25z m226 -195 c32 -13 139 -106 139 -120 0 -3 13 -29 30 -57 16
-27 28 -50 25 -50 -2 0 3 -19 11 -42 41 -113 -3 -228 -86 -228 -20 0 -52 7
-70 16 -56 28 -134 114 -170 189 -32 64 -35 77 -35 161 0 100 8 118 60 140 33
13 46 12 96 -9z"/>
<path d="M15363 2746 c-37 -21 -90 -86 -97 -118 -10 -51 -7 -74 14 -101 28
-35 30 -174 3 -184 -10 -4 -37 -19 -61 -34 -33 -21 -52 -26 -76 -22 -25 4 -43
-1 -72 -21 -48 -32 -70 -67 -79 -128 -6 -42 -4 -50 19 -73 25 -25 26 -25 63
-10 34 14 72 49 91 82 11 18 114 83 124 77 15 -10 9 -146 -7 -164 -9 -10 -18
-40 -22 -69 -5 -41 -2 -55 12 -71 19 -22 75 -28 75 -8 0 6 3 9 6 5 8 -8 66 46
85 80 23 41 25 110 3 134 -14 16 -18 38 -19 99 l0 78 35 18 c19 10 43 25 53
33 11 9 34 14 62 12 38 -2 49 3 83 34 47 42 72 90 72 137 0 42 -8 54 -43 67
-32 13 -64 -3 -109 -54 -50 -55 -63 -66 -99 -90 -20 -12 -41 -20 -47 -16 -19
11 -11 143 10 170 11 15 18 41 18 71 0 40 -4 50 -25 64 -28 18 -41 19 -72 2z"/>
<path d="M7325 4037 c-22 -12 -42 -24 -45 -27 -3 -3 -16 -11 -29 -18 -52 -30
-89 -50 -146 -82 -33 -18 -91 -52 -130 -75 -38 -23 -80 -45 -92 -49 -13 -4
-23 -12 -23 -17 0 -5 -6 -9 -13 -9 -8 0 -32 -12 -53 -27 -22 -16 -57 -37 -79
-48 -22 -11 -56 -31 -75 -43 -19 -13 -44 -28 -55 -33 -11 -5 -33 -18 -50 -29
-16 -10 -52 -31 -80 -45 -27 -14 -63 -34 -80 -45 -16 -11 -39 -24 -50 -30 -48
-24 -117 -66 -135 -82 -19 -17 -19 -33 -20 -701 l0 -683 22 -21 c13 -12 34
-27 48 -32 14 -6 39 -20 55 -31 17 -11 38 -23 48 -26 9 -4 17 -10 17 -15 0 -5
6 -9 14 -9 8 0 22 -7 30 -16 9 -8 16 -12 16 -7 0 4 4 4 8 -2 9 -12 32 -27 92
-57 25 -13 47 -26 50 -30 3 -4 17 -12 30 -17 27 -12 62 -33 70 -42 3 -3 25
-16 50 -30 25 -13 51 -30 58 -36 7 -7 18 -13 24 -13 5 0 30 -13 55 -30 24 -16
48 -30 54 -30 5 0 9 -4 9 -9 0 -5 10 -13 23 -17 12 -3 40 -18 62 -33 22 -14
69 -42 105 -60 36 -19 67 -38 70 -41 3 -4 29 -20 58 -36 86 -47 93 -51 105
-63 14 -14 74 -15 82 -1 4 6 21 17 38 25 18 8 77 41 132 74 55 34 109 65 121
70 19 8 136 76 174 101 8 6 24 14 36 19 19 8 134 76 174 101 8 6 26 15 40 21
13 5 27 13 30 17 3 4 23 16 45 27 22 10 59 32 82 47 23 15 44 28 48 28 3 0 51
27 106 60 55 33 104 60 109 60 5 0 17 10 27 23 17 22 18 59 16 708 -1 376 -2
687 -2 691 -1 6 -88 68 -96 68 -2 0 -46 25 -97 56 -50 31 -101 60 -113 65 -11
5 -33 18 -50 29 -16 11 -38 23 -47 26 -10 4 -18 10 -18 14 0 5 -12 13 -27 19
-16 6 -41 20 -58 31 -16 11 -37 23 -45 27 -16 7 -128 74 -170 101 -14 9 -29
17 -35 18 -5 1 -50 26 -98 55 -48 30 -95 59 -105 64 -9 6 -24 14 -32 20 -8 5
-17 10 -20 10 -3 0 -24 13 -47 28 -24 15 -46 27 -50 27 -5 0 -19 9 -33 20 -33
26 -85 25 -135 -3z m115 -35 c19 -10 54 -30 77 -45 24 -15 46 -27 50 -27 3 0
14 -6 22 -14 9 -7 36 -24 61 -37 25 -13 51 -30 58 -36 7 -7 18 -13 23 -13 6 0
49 -24 97 -52 48 -29 96 -58 107 -65 11 -7 31 -18 45 -25 14 -7 29 -18 33 -25
4 -7 17 -13 27 -13 10 0 22 -5 25 -10 4 -6 27 -22 53 -35 26 -14 61 -34 77
-45 17 -11 49 -28 72 -40 23 -11 44 -24 48 -29 3 -6 27 -20 53 -33 26 -13 49
-26 50 -31 2 -4 23 -16 46 -27 24 -10 48 -26 55 -34 11 -13 9 -17 -11 -25 -13
-5 -30 -16 -37 -25 -7 -9 -20 -16 -27 -16 -8 0 -31 -10 -52 -23 -20 -12 -46
-28 -57 -35 -11 -7 -29 -17 -40 -22 -11 -6 -33 -19 -50 -30 -16 -11 -42 -26
-57 -32 -16 -7 -28 -15 -28 -19 0 -4 -11 -10 -25 -13 -14 -4 -25 -11 -25 -16
0 -6 -6 -10 -14 -10 -8 0 -22 -7 -30 -16 -9 -8 -16 -12 -16 -8 0 3 -6 2 -12
-4 -14 -11 -66 -40 -140 -79 -26 -14 -48 -28 -48 -32 0 -4 -21 -17 -47 -30
-59 -28 -86 -43 -191 -106 -46 -28 -100 -59 -120 -70 -20 -11 -48 -28 -62 -37
-32 -23 -51 -23 -84 3 -14 11 -26 18 -26 14 0 -4 -12 3 -26 14 -15 12 -33 21
-40 21 -8 0 -14 3 -14 8 0 4 -21 18 -47 32 -27 14 -54 30 -61 37 -7 7 -20 13
-28 13 -8 0 -14 4 -14 9 0 5 -10 13 -22 17 -12 3 -28 13 -36 20 -7 8 -17 12
-21 9 -5 -2 -16 4 -26 15 -10 11 -24 20 -32 20 -7 0 -13 4 -13 8 0 4 -12 13
-27 20 -40 17 -127 65 -133 73 -3 3 -29 19 -57 34 -29 15 -53 31 -53 36 0 5
-4 8 -8 6 -11 -3 -82 36 -82 45 0 5 -6 8 -13 8 -7 0 -36 15 -65 34 -28 19 -52
33 -52 30 0 -3 -12 4 -26 15 -15 12 -32 21 -39 21 -7 0 -15 7 -19 15 -3 8 -12
15 -21 15 -15 0 -74 36 -86 54 -4 5 14 20 40 34 25 14 64 36 86 49 22 13 48
26 58 29 9 4 17 10 17 15 0 5 5 9 11 9 6 0 45 20 86 45 40 25 78 45 83 45 5 0
15 6 22 13 14 12 27 20 107 65 25 14 60 33 76 43 17 10 68 39 115 66 47 26 93
52 102 58 9 5 41 23 70 39 29 16 55 31 58 35 5 6 34 23 105 60 17 9 41 24 55
34 31 22 47 21 90 -1z m-1119 -732 c37 -22 72 -40 78 -40 6 0 11 -4 11 -9 0
-5 8 -12 18 -15 9 -4 35 -18 57 -31 22 -13 49 -29 60 -35 11 -6 34 -19 50 -29
17 -11 47 -29 67 -40 21 -11 57 -33 80 -48 24 -15 57 -34 73 -43 77 -42 100
-56 113 -67 7 -7 20 -13 28 -13 8 0 14 -4 14 -9 0 -5 10 -13 23 -17 12 -4 40
-19 62 -33 22 -14 49 -31 60 -37 11 -6 48 -27 82 -47 34 -21 66 -37 72 -37 6
0 11 -4 11 -10 0 -5 7 -10 15 -10 8 0 24 -9 35 -20 11 -11 23 -20 28 -20 11 0
4 -1292 -8 -1304 -8 -8 -88 34 -200 105 -8 5 -24 14 -35 19 -11 6 -33 19 -50
30 -16 11 -40 24 -52 30 -13 5 -23 14 -23 20 0 6 -4 9 -8 6 -4 -2 -32 11 -62
30 -30 18 -61 34 -67 34 -7 0 -13 4 -13 9 0 5 -10 13 -22 17 -12 3 -28 13 -36
20 -7 8 -20 14 -28 14 -8 0 -14 4 -14 9 0 5 -25 21 -55 36 -30 14 -55 30 -55
35 0 6 -6 10 -14 10 -16 0 -133 67 -142 81 -3 5 -13 9 -24 9 -10 0 -21 7 -24
16 -3 8 -10 13 -15 9 -5 -3 -13 0 -17 6 -3 6 -21 18 -38 26 -37 17 -62 32 -94
55 l-24 16 -1 656 c-1 405 2 656 7 656 6 0 40 -18 77 -40z m2232 -615 l-2
-656 -23 -18 c-13 -10 -33 -21 -45 -25 -13 -4 -23 -11 -23 -16 0 -4 -11 -11
-25 -14 -14 -4 -25 -11 -25 -16 0 -6 -6 -10 -14 -10 -8 0 -21 -6 -28 -13 -7
-7 -33 -23 -58 -36 -25 -12 -58 -31 -75 -41 -16 -10 -52 -30 -80 -45 -56 -29
-79 -42 -114 -67 -13 -10 -27 -15 -32 -12 -5 3 -9 0 -9 -6 0 -6 -10 -15 -22
-20 -13 -6 -39 -20 -58 -31 -19 -12 -55 -32 -80 -46 -25 -13 -58 -33 -75 -44
-16 -10 -42 -24 -57 -30 -16 -6 -28 -14 -28 -17 0 -4 -19 -16 -43 -27 -23 -11
-48 -26 -55 -32 -7 -7 -19 -13 -26 -13 -7 0 -32 -14 -55 -30 -22 -17 -51 -31
-64 -33 l-22 -2 -1 645 c-1 636 -1 645 19 668 11 12 26 22 33 22 7 0 19 6 26
13 7 7 34 23 61 37 26 14 47 28 47 32 0 5 8 8 17 8 9 0 24 6 32 14 9 7 48 31
86 51 39 21 72 41 75 44 3 3 23 15 45 26 22 10 48 26 58 34 10 8 25 16 34 17
9 2 19 6 22 11 7 9 39 30 61 40 8 3 52 28 96 54 45 27 87 49 93 49 6 0 11 4
11 9 0 5 8 11 18 15 9 3 44 22 77 41 33 19 69 40 80 45 11 6 36 20 55 32 44
27 84 48 90 48 3 0 4 -295 3 -655z"/>
<path d="M7075 3582 c-22 -9 -46 -22 -52 -28 -7 -7 -18 -14 -24 -16 -21 -7
-18 -66 5 -92 36 -41 83 -58 157 -58 60 0 74 -4 108 -28 21 -16 41 -27 43 -25
2 2 18 -9 37 -24 l34 -28 -22 -32 c-12 -17 -19 -31 -16 -31 3 0 -3 -13 -14
-28 -11 -16 -38 -34 -60 -42 -23 -7 -41 -17 -41 -22 0 -5 -3 -7 -7 -5 -5 2
-16 -4 -25 -15 -10 -10 -15 -18 -12 -18 4 0 2 -6 -4 -13 -17 -20 22 -75 66
-94 81 -35 200 -29 245 13 15 14 27 21 27 17 0 -4 7 5 15 21 14 26 14 31 -1
55 -10 14 -23 30 -31 34 -18 11 -16 31 6 69 11 17 18 35 16 38 -10 16 33 39
77 42 25 2 44 6 41 11 -8 13 155 15 165 2 9 -13 21 -15 89 -15 80 0 93 2 93
12 0 4 7 8 16 8 27 0 85 65 78 87 -14 39 -79 91 -106 85 -5 -1 -8 3 -8 9 0 16
-119 8 -162 -11 -21 -9 -52 -28 -70 -43 -21 -18 -44 -27 -67 -27 -20 0 -56 -6
-81 -14 -62 -18 -102 -11 -165 29 -29 19 -56 31 -60 27 -5 -4 -5 -2 -2 4 4 7
0 15 -9 18 -11 4 -14 13 -10 28 12 49 -97 119 -183 117 -25 -1 -64 -8 -86 -17z"/>
<path d="M6461 2585 c-46 -50 -47 -96 -5 -183 32 -65 86 -118 137 -134 33 -10
43 -9 74 7 33 18 36 18 61 3 15 -9 55 -33 90 -53 52 -31 66 -45 87 -90 27 -56
92 -121 132 -131 91 -23 142 52 107 158 -42 129 -173 218 -236 162 -16 -15
-22 -16 -40 -5 -11 7 -37 22 -57 33 -99 55 -121 71 -121 86 0 41 -75 129 -132
156 -42 20 -74 17 -97 -9z"/>
<path d="M7991 2739 c-22 -9 -99 -79 -87 -79 4 0 0 -10 -7 -22 -8 -13 -15 -41
-16 -63 -2 -32 3 -45 22 -62 22 -19 25 -30 26 -91 0 -67 -1 -70 -27 -81 -50
-21 -73 -21 -101 0 -57 42 -137 -1 -182 -96 -31 -67 -21 -117 27 -135 29 -11
72 6 115 47 15 14 44 29 65 34 60 13 66 12 58 -13 -4 -13 -9 -25 -13 -28 -3
-3 -17 -27 -30 -55 -13 -27 -40 -66 -60 -85 -70 -67 -87 -117 -62 -177 14 -34
28 -44 57 -38 11 2 25 4 31 4 15 1 93 70 91 79 -1 4 4 18 11 31 8 14 15 47 16
75 1 30 13 75 29 108 14 31 26 61 26 66 0 17 26 8 53 -18 19 -18 24 -31 20
-51 -7 -38 13 -94 35 -96 9 -1 22 -3 27 -4 27 -7 84 32 112 77 62 101 52 164
-28 179 -10 2 -19 0 -19 -5 0 -15 -29 -4 -60 23 -16 15 -30 33 -30 40 0 13 20
47 20 34 0 -4 21 13 46 38 25 25 49 45 53 46 3 0 15 2 27 3 31 4 63 30 101 83
28 40 33 55 32 94 -2 39 -7 49 -29 63 -15 8 -37 13 -50 11 -41 -8 -92 -57
-119 -115 -28 -61 -105 -140 -121 -124 -6 6 -7 28 -1 57 4 26 4 44 0 41 -12
-7 1 27 17 46 7 8 13 17 13 20 0 3 5 19 11 35 30 78 -24 134 -99 104z"/>
<path d="M1606 3378 c4 -7 50 -72 101 -145 51 -72 93 -137 93 -143 0 -6 -49
-77 -108 -158 -60 -81 -112 -153 -116 -159 -5 -10 5 -13 42 -13 l49 0 94 131
c85 118 95 128 107 112 7 -10 49 -69 93 -130 l80 -113 45 0 c34 0 45 3 41 13
-3 8 -53 80 -111 162 -58 81 -106 151 -106 155 0 7 31 50 177 253 l35 47 -46
0 -46 0 -86 -115 c-47 -63 -86 -115 -87 -115 -2 0 -38 52 -82 115 l-80 114
-48 1 c-36 0 -46 -3 -41 -12z"/>
<path d="M14581 896 c-122 -44 -189 -203 -147 -349 34 -116 125 -180 256 -181
67 -1 84 3 145 34 l70 35 3 103 3 102 -111 0 -110 0 0 -30 0 -30 81 0 80 0 -3
-52 c-3 -48 -5 -52 -41 -71 -95 -49 -196 -41 -258 22 -86 86 -76 267 19 339
44 33 138 42 195 19 31 -13 68 -55 80 -90 1 -5 15 -5 30 -2 33 9 34 27 4 79
-33 59 -92 86 -187 85 -41 0 -90 -6 -109 -13z"/>
<path d="M7180 635 l0 -265 200 0 200 0 0 30 0 30 -165 0 -165 0 0 95 0 95
145 0 145 0 0 30 0 30 -145 0 -145 0 0 80 0 80 155 0 155 0 0 30 0 30 -190 0
-190 0 0 -265z"/>
<path d="M10830 635 l0 -265 35 0 35 0 0 120 0 120 125 0 125 0 0 30 0 30
-125 0 -125 0 0 85 0 85 145 0 145 0 0 30 0 30 -180 0 -180 0 0 -265z"/>
<path d="M18380 635 l0 -265 35 0 35 0 0 125 0 125 140 0 140 0 0 -125 0 -125
35 0 35 0 0 265 0 265 -35 0 -35 0 0 -110 0 -110 -140 0 -140 0 0 110 0 110
-35 0 -35 0 0 -265z"/>
</g>
</svg>
